<mxfile host="app.diagrams.net" modified="2023-11-15T23:42:33.855Z" agent="Mozilla/5.0 (Windows NT 10.0; Win64; x64) AppleWebKit/537.36 (KHTML, like Gecko) Chrome/116.0.5845.837 YaBrowser/23.9.4.837 Yowser/2.5 Safari/537.36" etag="PNYdaeICQ45q8ZeX9jOb" version="22.1.2" type="device" pages="8">
  <diagram name="Страница — 1" id="gcPGvN87TfxnaRKs2bh6">
    <mxGraphModel dx="1590" dy="903" grid="1" gridSize="10" guides="1" tooltips="1" connect="1" arrows="1" fold="1" page="1" pageScale="1" pageWidth="827" pageHeight="1169" math="0" shadow="0">
      <root>
        <mxCell id="0" />
        <mxCell id="1" parent="0" />
        <mxCell id="rMw0RNn5V5dWzahoys3A-1" value="Начало&lt;br&gt;Make_result_lab4_Click" style="rounded=1;whiteSpace=wrap;html=1;arcSize=50;" vertex="1" parent="1">
          <mxGeometry x="340" y="60" width="140" height="60" as="geometry" />
        </mxCell>
        <mxCell id="rMw0RNn5V5dWzahoys3A-2" value="" style="endArrow=none;html=1;rounded=0;entryX=0.5;entryY=1;entryDx=0;entryDy=0;exitX=0.5;exitY=0;exitDx=0;exitDy=0;" edge="1" parent="1" source="rMw0RNn5V5dWzahoys3A-3" target="rMw0RNn5V5dWzahoys3A-1">
          <mxGeometry width="50" height="50" relative="1" as="geometry">
            <mxPoint x="410" y="160" as="sourcePoint" />
            <mxPoint x="450" y="200" as="targetPoint" />
          </mxGeometry>
        </mxCell>
        <mxCell id="rMw0RNn5V5dWzahoys3A-3" value="double a = Lab_dll.Input_user(Input_a_lab4);" style="shape=process;whiteSpace=wrap;html=1;backgroundOutline=1;" vertex="1" parent="1">
          <mxGeometry x="255" y="140" width="310" height="60" as="geometry" />
        </mxCell>
        <mxCell id="rMw0RNn5V5dWzahoys3A-4" value="" style="endArrow=none;html=1;rounded=0;exitX=0.5;exitY=1;exitDx=0;exitDy=0;" edge="1" parent="1" source="rMw0RNn5V5dWzahoys3A-3" target="rMw0RNn5V5dWzahoys3A-5">
          <mxGeometry width="50" height="50" relative="1" as="geometry">
            <mxPoint x="400" y="380" as="sourcePoint" />
            <mxPoint x="450" y="330" as="targetPoint" />
          </mxGeometry>
        </mxCell>
        <mxCell id="rMw0RNn5V5dWzahoys3A-5" value="double x = Lab_dll.Input_user(Input_x_lab4);" style="shape=process;whiteSpace=wrap;html=1;backgroundOutline=1;" vertex="1" parent="1">
          <mxGeometry x="255" y="240" width="310" height="60" as="geometry" />
        </mxCell>
        <mxCell id="rMw0RNn5V5dWzahoys3A-7" value="" style="endArrow=none;html=1;rounded=0;exitX=0.5;exitY=1;exitDx=0;exitDy=0;" edge="1" parent="1" source="rMw0RNn5V5dWzahoys3A-5" target="rMw0RNn5V5dWzahoys3A-8">
          <mxGeometry width="50" height="50" relative="1" as="geometry">
            <mxPoint x="290" y="310" as="sourcePoint" />
            <mxPoint x="340" y="260" as="targetPoint" />
          </mxGeometry>
        </mxCell>
        <mxCell id="rMw0RNn5V5dWzahoys3A-8" value="double y = Lab_dll.Input_user(Input_y_lab4);" style="shape=process;whiteSpace=wrap;html=1;backgroundOutline=1;" vertex="1" parent="1">
          <mxGeometry x="255" y="340" width="310" height="60" as="geometry" />
        </mxCell>
        <mxCell id="rMw0RNn5V5dWzahoys3A-9" value="double return_result = Lab_dll.Lab4_Make_result(a, x, y);" style="shape=process;whiteSpace=wrap;html=1;backgroundOutline=1;" vertex="1" parent="1">
          <mxGeometry x="217.5" y="440" width="385" height="60" as="geometry" />
        </mxCell>
        <mxCell id="rMw0RNn5V5dWzahoys3A-10" value="" style="endArrow=none;html=1;rounded=0;entryX=0.5;entryY=1;entryDx=0;entryDy=0;exitX=0.5;exitY=0;exitDx=0;exitDy=0;" edge="1" parent="1" source="rMw0RNn5V5dWzahoys3A-9" target="rMw0RNn5V5dWzahoys3A-8">
          <mxGeometry width="50" height="50" relative="1" as="geometry">
            <mxPoint x="290" y="310" as="sourcePoint" />
            <mxPoint x="340" y="260" as="targetPoint" />
          </mxGeometry>
        </mxCell>
        <mxCell id="rMw0RNn5V5dWzahoys3A-11" value="" style="endArrow=none;html=1;rounded=0;exitX=0.5;exitY=1;exitDx=0;exitDy=0;" edge="1" parent="1" source="rMw0RNn5V5dWzahoys3A-9" target="rMw0RNn5V5dWzahoys3A-12">
          <mxGeometry width="50" height="50" relative="1" as="geometry">
            <mxPoint x="290" y="520" as="sourcePoint" />
            <mxPoint x="340" y="470" as="targetPoint" />
          </mxGeometry>
        </mxCell>
        <mxCell id="rMw0RNn5V5dWzahoys3A-12" value="Lab_dll.Out_info(lab4_result_d, return_result);" style="shape=process;whiteSpace=wrap;html=1;backgroundOutline=1;" vertex="1" parent="1">
          <mxGeometry x="255" y="540" width="310" height="60" as="geometry" />
        </mxCell>
        <mxCell id="rMw0RNn5V5dWzahoys3A-13" value="" style="endArrow=none;html=1;rounded=0;exitX=0.5;exitY=1;exitDx=0;exitDy=0;" edge="1" parent="1" source="rMw0RNn5V5dWzahoys3A-12" target="rMw0RNn5V5dWzahoys3A-14">
          <mxGeometry width="50" height="50" relative="1" as="geometry">
            <mxPoint x="290" y="630" as="sourcePoint" />
            <mxPoint x="340" y="580" as="targetPoint" />
          </mxGeometry>
        </mxCell>
        <mxCell id="rMw0RNn5V5dWzahoys3A-14" value="Конец&lt;br&gt;Make_result_lab4_Click" style="rounded=1;whiteSpace=wrap;html=1;arcSize=50;" vertex="1" parent="1">
          <mxGeometry x="340" y="640" width="140" height="60" as="geometry" />
        </mxCell>
        <mxCell id="rMw0RNn5V5dWzahoys3A-31" value="" style="endArrow=none;dashed=1;html=1;rounded=0;exitX=1;exitY=0.5;exitDx=0;exitDy=0;" edge="1" target="rMw0RNn5V5dWzahoys3A-32" parent="1" source="rMw0RNn5V5dWzahoys3A-3">
          <mxGeometry width="50" height="50" relative="1" as="geometry">
            <mxPoint x="570" y="170" as="sourcePoint" />
            <mxPoint x="620.31" y="170.4199999999999" as="targetPoint" />
          </mxGeometry>
        </mxCell>
        <mxCell id="rMw0RNn5V5dWzahoys3A-32" value="&amp;nbsp; &amp;nbsp; &amp;nbsp; Ввод переменной a" style="strokeWidth=2;html=1;shape=mxgraph.flowchart.annotation_1;align=left;pointerEvents=1;" vertex="1" parent="1">
          <mxGeometry x="610" y="130" width="20" height="80" as="geometry" />
        </mxCell>
        <mxCell id="rMw0RNn5V5dWzahoys3A-44" value="" style="endArrow=none;dashed=1;html=1;rounded=0;exitX=1;exitY=0.5;exitDx=0;exitDy=0;" edge="1" parent="1" target="rMw0RNn5V5dWzahoys3A-45" source="rMw0RNn5V5dWzahoys3A-5">
          <mxGeometry width="50" height="50" relative="1" as="geometry">
            <mxPoint x="570" y="270" as="sourcePoint" />
            <mxPoint x="620.31" y="270.4199999999999" as="targetPoint" />
          </mxGeometry>
        </mxCell>
        <mxCell id="rMw0RNn5V5dWzahoys3A-45" value="&amp;nbsp; &amp;nbsp; &amp;nbsp; Ввод переменной x" style="strokeWidth=2;html=1;shape=mxgraph.flowchart.annotation_1;align=left;pointerEvents=1;" vertex="1" parent="1">
          <mxGeometry x="610" y="230" width="20" height="80" as="geometry" />
        </mxCell>
        <mxCell id="rMw0RNn5V5dWzahoys3A-46" value="" style="endArrow=none;dashed=1;html=1;rounded=0;exitX=1;exitY=0.5;exitDx=0;exitDy=0;" edge="1" parent="1" target="rMw0RNn5V5dWzahoys3A-47" source="rMw0RNn5V5dWzahoys3A-8">
          <mxGeometry width="50" height="50" relative="1" as="geometry">
            <mxPoint x="580" y="360" as="sourcePoint" />
            <mxPoint x="635.31" y="370.4199999999999" as="targetPoint" />
          </mxGeometry>
        </mxCell>
        <mxCell id="rMw0RNn5V5dWzahoys3A-47" value="&amp;nbsp; &amp;nbsp; &amp;nbsp; Ввод переменной y" style="strokeWidth=2;html=1;shape=mxgraph.flowchart.annotation_1;align=left;pointerEvents=1;" vertex="1" parent="1">
          <mxGeometry x="625" y="330" width="20" height="80" as="geometry" />
        </mxCell>
        <mxCell id="rMw0RNn5V5dWzahoys3A-48" value="" style="endArrow=none;dashed=1;html=1;rounded=0;exitX=1;exitY=0.5;exitDx=0;exitDy=0;" edge="1" target="rMw0RNn5V5dWzahoys3A-49" parent="1" source="rMw0RNn5V5dWzahoys3A-9">
          <mxGeometry width="50" height="50" relative="1" as="geometry">
            <mxPoint x="645" y="459.99999999999983" as="sourcePoint" />
            <mxPoint x="690.31" y="460.4199999999999" as="targetPoint" />
          </mxGeometry>
        </mxCell>
        <mxCell id="rMw0RNn5V5dWzahoys3A-49" value="&amp;nbsp; &amp;nbsp; &amp;nbsp;Вычисление значения m" style="strokeWidth=2;html=1;shape=mxgraph.flowchart.annotation_1;align=left;pointerEvents=1;" vertex="1" parent="1">
          <mxGeometry x="645" y="430" width="20" height="80" as="geometry" />
        </mxCell>
        <mxCell id="rMw0RNn5V5dWzahoys3A-50" value="" style="endArrow=none;dashed=1;html=1;rounded=0;exitX=1;exitY=0.5;exitDx=0;exitDy=0;" edge="1" target="rMw0RNn5V5dWzahoys3A-51" parent="1" source="rMw0RNn5V5dWzahoys3A-12">
          <mxGeometry width="50" height="50" relative="1" as="geometry">
            <mxPoint x="650" y="555" as="sourcePoint" />
            <mxPoint x="959.81" y="535.4199999999998" as="targetPoint" />
          </mxGeometry>
        </mxCell>
        <mxCell id="rMw0RNn5V5dWzahoys3A-51" value="&amp;nbsp; &amp;nbsp; &amp;nbsp;Вывод значения m" style="strokeWidth=2;html=1;shape=mxgraph.flowchart.annotation_1;align=left;pointerEvents=1;" vertex="1" parent="1">
          <mxGeometry x="645" y="530" width="20" height="80" as="geometry" />
        </mxCell>
      </root>
    </mxGraphModel>
  </diagram>
  <diagram id="JQ9SCx9vXzzaWozlXH76" name="Страница — 2">
    <mxGraphModel dx="3132" dy="1309" grid="1" gridSize="10" guides="1" tooltips="1" connect="1" arrows="1" fold="1" page="1" pageScale="1" pageWidth="827" pageHeight="1169" math="0" shadow="0">
      <root>
        <mxCell id="0" />
        <mxCell id="1" parent="0" />
        <mxCell id="IG7zMW9V_TZmOPMzyRXg-1" value="" style="rounded=1;whiteSpace=wrap;html=1;align=center;verticalAlign=middle;fontFamily=Helvetica;fontSize=24;fontColor=default;fillColor=none;gradientColor=none;arcSize=50;" parent="1" vertex="1">
          <mxGeometry x="-470" y="26.880000000000003" width="213" height="116.25" as="geometry" />
        </mxCell>
        <mxCell id="IG7zMW9V_TZmOPMzyRXg-2" value="" style="endArrow=none;html=1;rounded=0;fontFamily=Helvetica;fontSize=24;fontColor=default;exitX=0.5;exitY=0;exitDx=0;exitDy=0;entryX=0.509;entryY=1.02;entryDx=0;entryDy=0;entryPerimeter=0;" parent="1" source="IG7zMW9V_TZmOPMzyRXg-25" target="IG7zMW9V_TZmOPMzyRXg-3" edge="1">
          <mxGeometry width="50" height="50" relative="1" as="geometry">
            <mxPoint x="-199.99999999999955" y="340" as="sourcePoint" />
            <mxPoint x="-199.99749999999972" y="290" as="targetPoint" />
          </mxGeometry>
        </mxCell>
        <mxCell id="IG7zMW9V_TZmOPMzyRXg-3" value="" style="shape=process;whiteSpace=wrap;html=1;backgroundOutline=1;align=center;verticalAlign=middle;fontFamily=Helvetica;fontSize=24;fontColor=default;fillColor=none;gradientColor=none;" parent="1" vertex="1">
          <mxGeometry x="-468.37" y="190" width="209.75" height="100" as="geometry" />
        </mxCell>
        <mxCell id="IG7zMW9V_TZmOPMzyRXg-10" value="" style="endArrow=none;dashed=1;html=1;rounded=0;fontFamily=Helvetica;fontSize=24;fontColor=default;exitX=1;exitY=0.5;exitDx=0;exitDy=0;" parent="1" source="IG7zMW9V_TZmOPMzyRXg-1" target="IG7zMW9V_TZmOPMzyRXg-11" edge="1">
          <mxGeometry width="50" height="50" relative="1" as="geometry">
            <mxPoint x="-194" y="90" as="sourcePoint" />
            <mxPoint x="-174" y="90" as="targetPoint" />
          </mxGeometry>
        </mxCell>
        <mxCell id="IG7zMW9V_TZmOPMzyRXg-11" value="" style="strokeWidth=2;html=1;shape=mxgraph.flowchart.annotation_1;align=left;pointerEvents=1;verticalAlign=middle;fontFamily=Helvetica;fontSize=24;fontColor=default;fillColor=none;gradientColor=none;" parent="1" vertex="1">
          <mxGeometry x="-184" y="20" width="20" height="130" as="geometry" />
        </mxCell>
        <mxCell id="IG7zMW9V_TZmOPMzyRXg-12" value="&lt;font style=&quot;font-size: 24px;&quot;&gt;Вычисление точки пересечения&lt;br&gt;Входные параметры:&lt;br style=&quot;border-color: var(--border-color);&quot;&gt;a1, a2, b1, b2, c1, c2&lt;br&gt;Выходные параметры: double&lt;/font&gt;" style="text;strokeColor=none;fillColor=none;html=1;fontSize=16;fontStyle=0;verticalAlign=middle;align=left;fontFamily=Helvetica;fontColor=default;" parent="1" vertex="1">
          <mxGeometry x="-164" y="26.88" width="236" height="110" as="geometry" />
        </mxCell>
        <mxCell id="IG7zMW9V_TZmOPMzyRXg-21" value="" style="endArrow=none;html=1;rounded=0;fontFamily=Helvetica;fontSize=16;fontColor=default;entryX=0.5;entryY=1;entryDx=0;entryDy=0;exitX=0.5;exitY=0;exitDx=0;exitDy=0;" parent="1" source="IG7zMW9V_TZmOPMzyRXg-3" target="IG7zMW9V_TZmOPMzyRXg-1" edge="1">
          <mxGeometry width="50" height="50" relative="1" as="geometry">
            <mxPoint x="-510" y="320" as="sourcePoint" />
            <mxPoint x="-460" y="270" as="targetPoint" />
          </mxGeometry>
        </mxCell>
        <mxCell id="IG7zMW9V_TZmOPMzyRXg-22" value="" style="endArrow=none;dashed=1;html=1;rounded=0;fontFamily=Helvetica;fontSize=24;fontColor=default;exitX=1;exitY=0.5;exitDx=0;exitDy=0;" parent="1" source="IG7zMW9V_TZmOPMzyRXg-3" target="IG7zMW9V_TZmOPMzyRXg-23" edge="1">
          <mxGeometry width="50" height="50" relative="1" as="geometry">
            <mxPoint x="-239.9999999999999" y="370" as="sourcePoint" />
            <mxPoint x="-59.75999999999999" y="345" as="targetPoint" />
          </mxGeometry>
        </mxCell>
        <mxCell id="IG7zMW9V_TZmOPMzyRXg-23" value="" style="strokeWidth=2;html=1;shape=mxgraph.flowchart.annotation_1;align=left;pointerEvents=1;verticalAlign=middle;fontFamily=Helvetica;fontSize=24;fontColor=default;fillColor=none;gradientColor=none;" parent="1" vertex="1">
          <mxGeometry x="-190" y="197.5" width="20" height="85" as="geometry" />
        </mxCell>
        <mxCell id="IG7zMW9V_TZmOPMzyRXg-24" value="&lt;span style=&quot;font-weight: normal;&quot;&gt;Вычисление определителя второго порядка&lt;br&gt;&lt;/span&gt;" style="text;strokeColor=none;fillColor=none;html=1;fontSize=16;fontStyle=1;verticalAlign=middle;align=center;fontFamily=Helvetica;fontColor=default;" parent="1" vertex="1">
          <mxGeometry x="-60" y="220" width="100" height="40" as="geometry" />
        </mxCell>
        <mxCell id="IG7zMW9V_TZmOPMzyRXg-25" value="" style="shape=process;whiteSpace=wrap;html=1;backgroundOutline=1;align=center;verticalAlign=middle;fontFamily=Helvetica;fontSize=24;fontColor=default;fillColor=none;gradientColor=none;" parent="1" vertex="1">
          <mxGeometry x="-466.75" y="340" width="209.75" height="100" as="geometry" />
        </mxCell>
        <mxCell id="IG7zMW9V_TZmOPMzyRXg-27" value="" style="endArrow=none;dashed=1;html=1;rounded=0;fontFamily=Helvetica;fontSize=24;fontColor=default;exitX=1;exitY=0.5;exitDx=0;exitDy=0;" parent="1" source="IG7zMW9V_TZmOPMzyRXg-25" target="IG7zMW9V_TZmOPMzyRXg-28" edge="1">
          <mxGeometry width="50" height="50" relative="1" as="geometry">
            <mxPoint x="-239.9999999999999" y="520" as="sourcePoint" />
            <mxPoint x="-59.75999999999999" y="495" as="targetPoint" />
          </mxGeometry>
        </mxCell>
        <mxCell id="IG7zMW9V_TZmOPMzyRXg-28" value="" style="strokeWidth=2;html=1;shape=mxgraph.flowchart.annotation_1;align=left;pointerEvents=1;verticalAlign=middle;fontFamily=Helvetica;fontSize=24;fontColor=default;fillColor=none;gradientColor=none;" parent="1" vertex="1">
          <mxGeometry x="-190" y="347.5" width="20" height="85" as="geometry" />
        </mxCell>
        <mxCell id="IG7zMW9V_TZmOPMzyRXg-29" value="&lt;span style=&quot;font-weight: normal;&quot;&gt;Вычисление определителя второго порядка&lt;br&gt;&lt;/span&gt;" style="text;strokeColor=none;fillColor=none;html=1;fontSize=16;fontStyle=1;verticalAlign=middle;align=center;fontFamily=Helvetica;fontColor=default;" parent="1" vertex="1">
          <mxGeometry x="-60" y="370" width="100" height="40" as="geometry" />
        </mxCell>
        <mxCell id="IG7zMW9V_TZmOPMzyRXg-35" value="" style="shape=process;whiteSpace=wrap;html=1;backgroundOutline=1;align=center;verticalAlign=middle;fontFamily=Helvetica;fontSize=24;fontColor=default;fillColor=none;gradientColor=none;" parent="1" vertex="1">
          <mxGeometry x="-466.75" y="487" width="209.75" height="100" as="geometry" />
        </mxCell>
        <mxCell id="IG7zMW9V_TZmOPMzyRXg-36" value="" style="endArrow=none;html=1;rounded=0;fontFamily=Helvetica;fontSize=16;fontColor=default;entryX=0.499;entryY=1.023;entryDx=0;entryDy=0;exitX=0.5;exitY=0;exitDx=0;exitDy=0;entryPerimeter=0;" parent="1" source="IG7zMW9V_TZmOPMzyRXg-35" target="IG7zMW9V_TZmOPMzyRXg-25" edge="1">
          <mxGeometry width="50" height="50" relative="1" as="geometry">
            <mxPoint x="-510" y="617" as="sourcePoint" />
            <mxPoint x="-363" y="440" as="targetPoint" />
          </mxGeometry>
        </mxCell>
        <mxCell id="IG7zMW9V_TZmOPMzyRXg-37" value="" style="endArrow=none;dashed=1;html=1;rounded=0;fontFamily=Helvetica;fontSize=24;fontColor=default;exitX=1;exitY=0.5;exitDx=0;exitDy=0;" parent="1" source="IG7zMW9V_TZmOPMzyRXg-35" target="IG7zMW9V_TZmOPMzyRXg-38" edge="1">
          <mxGeometry width="50" height="50" relative="1" as="geometry">
            <mxPoint x="-239.9999999999999" y="667" as="sourcePoint" />
            <mxPoint x="-59.75999999999999" y="642" as="targetPoint" />
          </mxGeometry>
        </mxCell>
        <mxCell id="IG7zMW9V_TZmOPMzyRXg-38" value="" style="strokeWidth=2;html=1;shape=mxgraph.flowchart.annotation_1;align=left;pointerEvents=1;verticalAlign=middle;fontFamily=Helvetica;fontSize=24;fontColor=default;fillColor=none;gradientColor=none;" parent="1" vertex="1">
          <mxGeometry x="-190" y="494.5" width="20" height="85" as="geometry" />
        </mxCell>
        <mxCell id="IG7zMW9V_TZmOPMzyRXg-39" value="&lt;span style=&quot;font-weight: normal;&quot;&gt;Вычисление определителя второго порядка&lt;br&gt;&lt;/span&gt;" style="text;strokeColor=none;fillColor=none;html=1;fontSize=16;fontStyle=1;verticalAlign=middle;align=center;fontFamily=Helvetica;fontColor=default;" parent="1" vertex="1">
          <mxGeometry x="-60" y="517" width="100" height="40" as="geometry" />
        </mxCell>
        <mxCell id="IG7zMW9V_TZmOPMzyRXg-40" value="&lt;span style=&quot;font-weight: 400;&quot;&gt;Delta()&lt;br&gt;&lt;/span&gt;" style="text;strokeColor=none;fillColor=none;html=1;fontSize=16;fontStyle=1;verticalAlign=middle;align=center;fontFamily=Helvetica;fontColor=default;" parent="1" vertex="1">
          <mxGeometry x="-413" y="220" width="100" height="40" as="geometry" />
        </mxCell>
        <mxCell id="IG7zMW9V_TZmOPMzyRXg-41" value="&lt;span style=&quot;font-weight: 400;&quot;&gt;Res_Delta_X()&lt;br&gt;&lt;/span&gt;" style="text;strokeColor=none;fillColor=none;html=1;fontSize=16;fontStyle=1;verticalAlign=middle;align=center;fontFamily=Helvetica;fontColor=default;" parent="1" vertex="1">
          <mxGeometry x="-413" y="370" width="100" height="40" as="geometry" />
        </mxCell>
        <mxCell id="IG7zMW9V_TZmOPMzyRXg-42" value="&lt;span style=&quot;font-weight: 400;&quot;&gt;Res_Delta_Y()&lt;br&gt;&lt;/span&gt;" style="text;strokeColor=none;fillColor=none;html=1;fontSize=16;fontStyle=1;verticalAlign=middle;align=center;fontFamily=Helvetica;fontColor=default;" parent="1" vertex="1">
          <mxGeometry x="-413" y="517" width="100" height="40" as="geometry" />
        </mxCell>
        <mxCell id="-O4M7dscSAYWwoBC6ZsX-3" value="" style="shape=process;whiteSpace=wrap;html=1;backgroundOutline=1;align=center;verticalAlign=middle;fontFamily=Helvetica;fontSize=24;fontColor=default;fillColor=none;gradientColor=none;" parent="1" vertex="1">
          <mxGeometry x="-466.75" y="632" width="209.75" height="100" as="geometry" />
        </mxCell>
        <mxCell id="-O4M7dscSAYWwoBC6ZsX-4" value="" style="endArrow=none;html=1;rounded=0;fontFamily=Helvetica;fontSize=16;fontColor=default;entryX=0.5;entryY=1;entryDx=0;entryDy=0;exitX=0.5;exitY=0;exitDx=0;exitDy=0;" parent="1" source="-O4M7dscSAYWwoBC6ZsX-3" target="IG7zMW9V_TZmOPMzyRXg-35" edge="1">
          <mxGeometry width="50" height="50" relative="1" as="geometry">
            <mxPoint x="-510" y="762" as="sourcePoint" />
            <mxPoint x="-362" y="587" as="targetPoint" />
          </mxGeometry>
        </mxCell>
        <mxCell id="-O4M7dscSAYWwoBC6ZsX-5" value="" style="endArrow=none;dashed=1;html=1;rounded=0;fontFamily=Helvetica;fontSize=24;fontColor=default;exitX=1;exitY=0.5;exitDx=0;exitDy=0;" parent="1" source="-O4M7dscSAYWwoBC6ZsX-3" target="-O4M7dscSAYWwoBC6ZsX-6" edge="1">
          <mxGeometry width="50" height="50" relative="1" as="geometry">
            <mxPoint x="-239.9999999999999" y="812" as="sourcePoint" />
            <mxPoint x="-59.75999999999999" y="787" as="targetPoint" />
          </mxGeometry>
        </mxCell>
        <mxCell id="-O4M7dscSAYWwoBC6ZsX-6" value="" style="strokeWidth=2;html=1;shape=mxgraph.flowchart.annotation_1;align=left;pointerEvents=1;verticalAlign=middle;fontFamily=Helvetica;fontSize=24;fontColor=default;fillColor=none;gradientColor=none;" parent="1" vertex="1">
          <mxGeometry x="-190" y="639.5" width="20" height="85" as="geometry" />
        </mxCell>
        <mxCell id="-O4M7dscSAYWwoBC6ZsX-7" value="&lt;span style=&quot;font-weight: normal;&quot;&gt;Вычисление координаты X&lt;br&gt;&lt;/span&gt;" style="text;strokeColor=none;fillColor=none;html=1;fontSize=16;fontStyle=1;verticalAlign=middle;align=center;fontFamily=Helvetica;fontColor=default;" parent="1" vertex="1">
          <mxGeometry x="-60" y="662" width="100" height="40" as="geometry" />
        </mxCell>
        <mxCell id="-O4M7dscSAYWwoBC6ZsX-8" value="&lt;span style=&quot;font-weight: 400;&quot;&gt;res_x&lt;br&gt;&lt;/span&gt;" style="text;strokeColor=none;fillColor=none;html=1;fontSize=16;fontStyle=1;verticalAlign=middle;align=center;fontFamily=Helvetica;fontColor=default;" parent="1" vertex="1">
          <mxGeometry x="-413" y="662" width="100" height="40" as="geometry" />
        </mxCell>
        <mxCell id="-O4M7dscSAYWwoBC6ZsX-9" value="" style="shape=process;whiteSpace=wrap;html=1;backgroundOutline=1;align=center;verticalAlign=middle;fontFamily=Helvetica;fontSize=24;fontColor=default;fillColor=none;gradientColor=none;" parent="1" vertex="1">
          <mxGeometry x="-466.75" y="777" width="209.75" height="100" as="geometry" />
        </mxCell>
        <mxCell id="-O4M7dscSAYWwoBC6ZsX-10" value="" style="endArrow=none;html=1;rounded=0;fontFamily=Helvetica;fontSize=16;fontColor=default;entryX=0.5;entryY=1;entryDx=0;entryDy=0;exitX=0.5;exitY=0;exitDx=0;exitDy=0;" parent="1" source="-O4M7dscSAYWwoBC6ZsX-9" target="-O4M7dscSAYWwoBC6ZsX-3" edge="1">
          <mxGeometry width="50" height="50" relative="1" as="geometry">
            <mxPoint x="-510" y="907" as="sourcePoint" />
            <mxPoint x="-362" y="732" as="targetPoint" />
          </mxGeometry>
        </mxCell>
        <mxCell id="-O4M7dscSAYWwoBC6ZsX-11" value="" style="endArrow=none;dashed=1;html=1;rounded=0;fontFamily=Helvetica;fontSize=24;fontColor=default;exitX=1;exitY=0.5;exitDx=0;exitDy=0;" parent="1" source="-O4M7dscSAYWwoBC6ZsX-9" target="-O4M7dscSAYWwoBC6ZsX-12" edge="1">
          <mxGeometry width="50" height="50" relative="1" as="geometry">
            <mxPoint x="-239.9999999999999" y="957" as="sourcePoint" />
            <mxPoint x="-59.75999999999999" y="932" as="targetPoint" />
          </mxGeometry>
        </mxCell>
        <mxCell id="-O4M7dscSAYWwoBC6ZsX-12" value="" style="strokeWidth=2;html=1;shape=mxgraph.flowchart.annotation_1;align=left;pointerEvents=1;verticalAlign=middle;fontFamily=Helvetica;fontSize=24;fontColor=default;fillColor=none;gradientColor=none;" parent="1" vertex="1">
          <mxGeometry x="-190" y="784.5" width="20" height="85" as="geometry" />
        </mxCell>
        <mxCell id="-O4M7dscSAYWwoBC6ZsX-13" value="&lt;span style=&quot;font-weight: normal;&quot;&gt;Вычисление координаты Y&lt;br&gt;Входные данные: delta_y, delta&lt;br&gt;Выходные данные: double res_y&lt;br&gt;&lt;/span&gt;" style="text;strokeColor=none;fillColor=none;html=1;fontSize=16;fontStyle=1;verticalAlign=middle;align=center;fontFamily=Helvetica;fontColor=default;" parent="1" vertex="1">
          <mxGeometry x="-60" y="807" width="100" height="40" as="geometry" />
        </mxCell>
        <mxCell id="-O4M7dscSAYWwoBC6ZsX-14" value="&lt;span style=&quot;font-weight: 400;&quot;&gt;res_y&lt;br&gt;&lt;/span&gt;" style="text;strokeColor=none;fillColor=none;html=1;fontSize=16;fontStyle=1;verticalAlign=middle;align=center;fontFamily=Helvetica;fontColor=default;" parent="1" vertex="1">
          <mxGeometry x="-413" y="807" width="100" height="40" as="geometry" />
        </mxCell>
        <mxCell id="-O4M7dscSAYWwoBC6ZsX-15" value="&lt;span style=&quot;font-weight: 400;&quot;&gt;&lt;font style=&quot;font-size: 20px;&quot;&gt;Начало&lt;/font&gt;&lt;br&gt;&lt;/span&gt;" style="text;strokeColor=none;fillColor=none;html=1;fontSize=16;fontStyle=1;verticalAlign=middle;align=center;fontFamily=Helvetica;fontColor=default;" parent="1" vertex="1">
          <mxGeometry x="-419.37" y="63.91" width="115" height="42.18" as="geometry" />
        </mxCell>
        <mxCell id="-O4M7dscSAYWwoBC6ZsX-16" value="" style="endArrow=none;html=1;rounded=0;fontFamily=Helvetica;fontSize=16;fontColor=default;entryX=0.5;entryY=1;entryDx=0;entryDy=0;exitX=0.5;exitY=0;exitDx=0;exitDy=0;" parent="1" source="-O4M7dscSAYWwoBC6ZsX-17" target="-O4M7dscSAYWwoBC6ZsX-9" edge="1">
          <mxGeometry width="50" height="50" relative="1" as="geometry">
            <mxPoint x="-450" y="770" as="sourcePoint" />
            <mxPoint x="-400" y="720" as="targetPoint" />
          </mxGeometry>
        </mxCell>
        <mxCell id="-O4M7dscSAYWwoBC6ZsX-17" value="" style="rounded=1;whiteSpace=wrap;html=1;align=center;verticalAlign=middle;fontFamily=Helvetica;fontSize=16;fontColor=default;fillColor=none;gradientColor=none;arcSize=50;" parent="1" vertex="1">
          <mxGeometry x="-468.37" y="920" width="213" height="113.12" as="geometry" />
        </mxCell>
        <mxCell id="-O4M7dscSAYWwoBC6ZsX-18" value="&lt;span style=&quot;font-weight: normal;&quot;&gt;&lt;font style=&quot;font-size: 20px;&quot;&gt;Конец&lt;br&gt;&lt;/font&gt;&lt;/span&gt;" style="text;strokeColor=none;fillColor=none;html=1;fontSize=16;fontStyle=1;verticalAlign=middle;align=center;fontFamily=Helvetica;fontColor=default;" parent="1" vertex="1">
          <mxGeometry x="-411.87" y="956.56" width="100" height="40" as="geometry" />
        </mxCell>
      </root>
    </mxGraphModel>
  </diagram>
  <diagram id="gbt34hBywxkVAUpJ63Ti" name="Страница — 3">
    <mxGraphModel dx="2305" dy="1309" grid="1" gridSize="10" guides="1" tooltips="1" connect="1" arrows="1" fold="1" page="1" pageScale="1" pageWidth="827" pageHeight="1169" math="0" shadow="0">
      <root>
        <mxCell id="0" />
        <mxCell id="1" parent="0" />
        <mxCell id="JByD3nCNMzfMSLDcumtZ-1" value="&lt;font style=&quot;font-size: 16px;&quot;&gt;Начало&lt;br&gt;Res_Delta_X&lt;/font&gt;" style="rounded=1;whiteSpace=wrap;html=1;align=center;verticalAlign=middle;fontFamily=Helvetica;fontSize=16;fontColor=default;fillColor=none;gradientColor=none;arcSize=50;" parent="1" vertex="1">
          <mxGeometry x="170" y="120" width="120" height="60" as="geometry" />
        </mxCell>
        <mxCell id="JByD3nCNMzfMSLDcumtZ-4" value="Начало&lt;br&gt;Delta()" style="rounded=1;whiteSpace=wrap;html=1;align=center;verticalAlign=middle;fillColor=none;gradientColor=none;arcSize=50;fontSize=16;" parent="1" vertex="1">
          <mxGeometry x="690" y="120" width="120" height="60" as="geometry" />
        </mxCell>
        <mxCell id="JByD3nCNMzfMSLDcumtZ-5" value="Начало&lt;br&gt;Res_Delta_Y" style="rounded=1;whiteSpace=wrap;html=1;align=center;verticalAlign=middle;fontFamily=Helvetica;fontSize=16;fontColor=default;fillColor=none;gradientColor=none;arcSize=50;" parent="1" vertex="1">
          <mxGeometry x="1310" y="120" width="120" height="60" as="geometry" />
        </mxCell>
        <mxCell id="JByD3nCNMzfMSLDcumtZ-7" value="" style="endArrow=none;html=1;rounded=0;fontFamily=Helvetica;fontSize=16;fontColor=default;entryX=0.5;entryY=1;entryDx=0;entryDy=0;exitX=0.5;exitY=0;exitDx=0;exitDy=0;" parent="1" source="JByD3nCNMzfMSLDcumtZ-8" target="JByD3nCNMzfMSLDcumtZ-1" edge="1">
          <mxGeometry width="50" height="50" relative="1" as="geometry">
            <mxPoint x="510" y="690" as="sourcePoint" />
            <mxPoint x="560" y="640" as="targetPoint" />
          </mxGeometry>
        </mxCell>
        <mxCell id="JByD3nCNMzfMSLDcumtZ-8" value="(c1 * b2) - (c2 * b1)" style="rounded=0;whiteSpace=wrap;html=1;align=center;verticalAlign=middle;fontFamily=Helvetica;fontSize=16;fontColor=default;fillColor=none;gradientColor=none;" parent="1" vertex="1">
          <mxGeometry x="160" y="210" width="140" height="60" as="geometry" />
        </mxCell>
        <mxCell id="JByD3nCNMzfMSLDcumtZ-9" value="" style="endArrow=none;html=1;rounded=0;fontFamily=Helvetica;fontSize=16;fontColor=default;exitX=0.5;exitY=0;exitDx=0;exitDy=0;entryX=0.5;entryY=1;entryDx=0;entryDy=0;" parent="1" source="JByD3nCNMzfMSLDcumtZ-14" target="JByD3nCNMzfMSLDcumtZ-4" edge="1">
          <mxGeometry width="50" height="50" relative="1" as="geometry">
            <mxPoint x="750" y="210" as="sourcePoint" />
            <mxPoint x="756" y="190" as="targetPoint" />
          </mxGeometry>
        </mxCell>
        <mxCell id="JByD3nCNMzfMSLDcumtZ-11" value="" style="endArrow=none;html=1;rounded=0;fontFamily=Helvetica;fontSize=16;fontColor=default;entryX=0.5;entryY=1;entryDx=0;entryDy=0;exitX=0.5;exitY=0;exitDx=0;exitDy=0;" parent="1" source="JByD3nCNMzfMSLDcumtZ-13" target="JByD3nCNMzfMSLDcumtZ-5" edge="1">
          <mxGeometry width="50" height="50" relative="1" as="geometry">
            <mxPoint x="1370" y="210" as="sourcePoint" />
            <mxPoint x="1370" y="195" as="targetPoint" />
          </mxGeometry>
        </mxCell>
        <mxCell id="JByD3nCNMzfMSLDcumtZ-13" value="(a1 * c2) - (a2 * c1)" style="rounded=0;whiteSpace=wrap;html=1;align=center;verticalAlign=middle;fontFamily=Helvetica;fontSize=16;fontColor=default;fillColor=none;gradientColor=none;" parent="1" vertex="1">
          <mxGeometry x="1300" y="210" width="140" height="60" as="geometry" />
        </mxCell>
        <mxCell id="JByD3nCNMzfMSLDcumtZ-14" value="(a1 * b2) - (a2 * b1)" style="rounded=0;whiteSpace=wrap;html=1;align=center;verticalAlign=middle;fontFamily=Helvetica;fontSize=16;fontColor=default;fillColor=none;gradientColor=none;" parent="1" vertex="1">
          <mxGeometry x="680" y="210" width="140" height="60" as="geometry" />
        </mxCell>
        <mxCell id="ppO2m8GWplqeA0fYNwq0-2" value="" style="endArrow=none;dashed=1;html=1;rounded=0;fontFamily=Helvetica;fontSize=16;fontColor=default;exitX=1;exitY=0.5;exitDx=0;exitDy=0;" parent="1" source="JByD3nCNMzfMSLDcumtZ-1" target="ppO2m8GWplqeA0fYNwq0-3" edge="1">
          <mxGeometry width="50" height="50" relative="1" as="geometry">
            <mxPoint x="300" y="150" as="sourcePoint" />
            <mxPoint x="340" y="150" as="targetPoint" />
          </mxGeometry>
        </mxCell>
        <mxCell id="ppO2m8GWplqeA0fYNwq0-3" value="&amp;nbsp; &amp;nbsp;Вычисление определителя второго порядка&lt;br&gt;&amp;nbsp; &amp;nbsp;Входные параметры: c1, c2, b1, b2&lt;br style=&quot;border-color: var(--border-color); text-align: center;&quot;&gt;&lt;span style=&quot;text-align: center;&quot;&gt;&amp;nbsp; &amp;nbsp;Выходные параметры: double delta_x&lt;/span&gt;" style="strokeWidth=2;html=1;shape=mxgraph.flowchart.annotation_1;align=left;pointerEvents=1;verticalAlign=middle;fontFamily=Helvetica;fontSize=16;fontColor=default;fillColor=none;gradientColor=none;" parent="1" vertex="1">
          <mxGeometry x="315" y="120" width="25" height="60" as="geometry" />
        </mxCell>
        <mxCell id="-kBLib8XsM5FMUQgzwyr-1" value="" style="endArrow=none;dashed=1;html=1;rounded=0;fontFamily=Helvetica;fontSize=16;fontColor=default;exitX=1;exitY=0.5;exitDx=0;exitDy=0;" parent="1" source="JByD3nCNMzfMSLDcumtZ-5" target="-kBLib8XsM5FMUQgzwyr-2" edge="1">
          <mxGeometry width="50" height="50" relative="1" as="geometry">
            <mxPoint x="1440" y="150" as="sourcePoint" />
            <mxPoint x="1490" y="150" as="targetPoint" />
          </mxGeometry>
        </mxCell>
        <mxCell id="-kBLib8XsM5FMUQgzwyr-2" value="&amp;nbsp; &amp;nbsp;Вычисление определителя второго порядка&lt;br style=&quot;border-color: var(--border-color); text-align: center;&quot;&gt;&lt;span style=&quot;text-align: center;&quot;&gt;&amp;nbsp; &amp;nbsp;Входные данные: a1, a2, c1, c2&lt;/span&gt;&lt;br style=&quot;border-color: var(--border-color); text-align: center;&quot;&gt;&lt;span style=&quot;text-align: center;&quot;&gt;&amp;nbsp; &amp;nbsp;Выходные данные: double delta_y&lt;/span&gt;" style="strokeWidth=2;html=1;shape=mxgraph.flowchart.annotation_1;align=left;pointerEvents=1;verticalAlign=middle;fontFamily=Helvetica;fontSize=16;fontColor=default;fillColor=none;gradientColor=none;" parent="1" vertex="1">
          <mxGeometry x="1465" y="120" width="25" height="60" as="geometry" />
        </mxCell>
        <mxCell id="_0iIQ51jGWU1YBUbTsYF-1" value="" style="endArrow=none;dashed=1;html=1;rounded=0;fontFamily=Helvetica;fontSize=16;fontColor=default;exitX=1;exitY=0.5;exitDx=0;exitDy=0;" parent="1" source="JByD3nCNMzfMSLDcumtZ-4" target="_0iIQ51jGWU1YBUbTsYF-2" edge="1">
          <mxGeometry width="50" height="50" relative="1" as="geometry">
            <mxPoint x="810" y="150" as="sourcePoint" />
            <mxPoint x="860" y="150" as="targetPoint" />
          </mxGeometry>
        </mxCell>
        <mxCell id="_0iIQ51jGWU1YBUbTsYF-2" value="&amp;nbsp; &amp;nbsp;Вычисление определителя второго порядка&lt;br&gt;&amp;nbsp; &amp;nbsp;Входные параметры: a1, a2, b1, b2&lt;br style=&quot;border-color: var(--border-color); text-align: center;&quot;&gt;&lt;span style=&quot;text-align: center;&quot;&gt;&amp;nbsp; &amp;nbsp;Выходные параметры: double delta_x&lt;/span&gt;" style="strokeWidth=2;html=1;shape=mxgraph.flowchart.annotation_1;align=left;pointerEvents=1;verticalAlign=middle;fontFamily=Helvetica;fontSize=16;fontColor=default;fillColor=none;gradientColor=none;" parent="1" vertex="1">
          <mxGeometry x="835" y="120" width="25" height="60" as="geometry" />
        </mxCell>
        <mxCell id="FEOhGibvp6qKB15Zhyrx-1" value="" style="endArrow=none;html=1;rounded=0;fontFamily=Helvetica;fontSize=16;fontColor=default;entryX=0.5;entryY=1;entryDx=0;entryDy=0;exitX=0.5;exitY=0;exitDx=0;exitDy=0;" parent="1" source="FEOhGibvp6qKB15Zhyrx-2" target="JByD3nCNMzfMSLDcumtZ-14" edge="1">
          <mxGeometry width="50" height="50" relative="1" as="geometry">
            <mxPoint x="880" y="440" as="sourcePoint" />
            <mxPoint x="930" y="390" as="targetPoint" />
          </mxGeometry>
        </mxCell>
        <mxCell id="FEOhGibvp6qKB15Zhyrx-2" value="Конец&lt;br&gt;Delta()" style="rounded=1;whiteSpace=wrap;html=1;align=center;verticalAlign=middle;fontFamily=Helvetica;fontSize=16;fontColor=default;fillColor=none;gradientColor=none;arcSize=50;" parent="1" vertex="1">
          <mxGeometry x="690" y="300" width="120" height="60" as="geometry" />
        </mxCell>
        <mxCell id="FEOhGibvp6qKB15Zhyrx-3" value="" style="endArrow=none;html=1;rounded=0;fontFamily=Helvetica;fontSize=16;fontColor=default;exitX=0.5;exitY=0;exitDx=0;exitDy=0;entryX=0.5;entryY=1;entryDx=0;entryDy=0;" parent="1" source="FEOhGibvp6qKB15Zhyrx-4" target="JByD3nCNMzfMSLDcumtZ-13" edge="1">
          <mxGeometry width="50" height="50" relative="1" as="geometry">
            <mxPoint x="1500" y="430" as="sourcePoint" />
            <mxPoint x="1520" y="330" as="targetPoint" />
          </mxGeometry>
        </mxCell>
        <mxCell id="FEOhGibvp6qKB15Zhyrx-4" value="Конец&lt;br&gt;Res_Delta_Y()" style="rounded=1;whiteSpace=wrap;html=1;align=center;verticalAlign=middle;fontFamily=Helvetica;fontSize=16;fontColor=default;fillColor=none;gradientColor=none;arcSize=50;" parent="1" vertex="1">
          <mxGeometry x="1310" y="300" width="120" height="60" as="geometry" />
        </mxCell>
        <mxCell id="FEOhGibvp6qKB15Zhyrx-5" value="" style="endArrow=none;html=1;rounded=0;fontFamily=Helvetica;fontSize=16;fontColor=default;exitX=0.5;exitY=0;exitDx=0;exitDy=0;entryX=0.5;entryY=1;entryDx=0;entryDy=0;" parent="1" source="FEOhGibvp6qKB15Zhyrx-6" target="JByD3nCNMzfMSLDcumtZ-8" edge="1">
          <mxGeometry width="50" height="50" relative="1" as="geometry">
            <mxPoint x="360" y="440" as="sourcePoint" />
            <mxPoint x="310" y="330" as="targetPoint" />
          </mxGeometry>
        </mxCell>
        <mxCell id="FEOhGibvp6qKB15Zhyrx-6" value="Конец&lt;br&gt;Res_Delta_X()" style="rounded=1;whiteSpace=wrap;html=1;align=center;verticalAlign=middle;fontFamily=Helvetica;fontSize=16;fontColor=default;fillColor=none;gradientColor=none;arcSize=50;" parent="1" vertex="1">
          <mxGeometry x="170" y="300" width="120" height="60" as="geometry" />
        </mxCell>
        <mxCell id="FEOhGibvp6qKB15Zhyrx-7" value="Начало&lt;br&gt;res_x" style="rounded=1;whiteSpace=wrap;html=1;align=center;verticalAlign=middle;fontFamily=Helvetica;fontSize=16;fontColor=default;fillColor=none;gradientColor=none;arcSize=50;" parent="1" vertex="1">
          <mxGeometry x="260" y="470" width="120" height="60" as="geometry" />
        </mxCell>
        <mxCell id="FEOhGibvp6qKB15Zhyrx-8" value="delta_x / delta" style="rounded=0;whiteSpace=wrap;html=1;align=center;verticalAlign=middle;fontFamily=Helvetica;fontSize=16;fontColor=default;fillColor=none;gradientColor=none;" parent="1" vertex="1">
          <mxGeometry x="260" y="770" width="120" height="60" as="geometry" />
        </mxCell>
        <mxCell id="FEOhGibvp6qKB15Zhyrx-10" value="Конец&lt;br&gt;res_x" style="rounded=1;whiteSpace=wrap;html=1;align=center;verticalAlign=middle;fontFamily=Helvetica;fontSize=16;fontColor=default;fillColor=none;gradientColor=none;arcSize=50;" parent="1" vertex="1">
          <mxGeometry x="260" y="870" width="120" height="60" as="geometry" />
        </mxCell>
        <mxCell id="FEOhGibvp6qKB15Zhyrx-12" value="" style="endArrow=none;html=1;rounded=0;fontFamily=Helvetica;fontSize=16;fontColor=default;entryX=0.5;entryY=0;entryDx=0;entryDy=0;exitX=0.5;exitY=1;exitDx=0;exitDy=0;" parent="1" source="FEOhGibvp6qKB15Zhyrx-8" target="FEOhGibvp6qKB15Zhyrx-10" edge="1">
          <mxGeometry width="50" height="50" relative="1" as="geometry">
            <mxPoint x="550" y="815" as="sourcePoint" />
            <mxPoint x="800" y="815" as="targetPoint" />
          </mxGeometry>
        </mxCell>
        <mxCell id="FEOhGibvp6qKB15Zhyrx-13" value="Начало&lt;br&gt;res_y" style="rounded=1;whiteSpace=wrap;html=1;align=center;verticalAlign=middle;fontFamily=Helvetica;fontSize=16;fontColor=default;fillColor=none;gradientColor=none;arcSize=50;" parent="1" vertex="1">
          <mxGeometry x="835" y="470" width="120" height="60" as="geometry" />
        </mxCell>
        <mxCell id="FEOhGibvp6qKB15Zhyrx-14" value="delta_y / delta" style="rounded=0;whiteSpace=wrap;html=1;align=center;verticalAlign=middle;fontFamily=Helvetica;fontSize=16;fontColor=default;fillColor=none;gradientColor=none;" parent="1" vertex="1">
          <mxGeometry x="835" y="775" width="120" height="60" as="geometry" />
        </mxCell>
        <mxCell id="FEOhGibvp6qKB15Zhyrx-15" value="Конец&lt;br&gt;res_y" style="rounded=1;whiteSpace=wrap;html=1;align=center;verticalAlign=middle;fontFamily=Helvetica;fontSize=16;fontColor=default;fillColor=none;gradientColor=none;arcSize=50;" parent="1" vertex="1">
          <mxGeometry x="835" y="870" width="120" height="60" as="geometry" />
        </mxCell>
        <mxCell id="FEOhGibvp6qKB15Zhyrx-17" value="" style="endArrow=none;html=1;rounded=0;fontFamily=Helvetica;fontSize=16;fontColor=default;entryX=0.5;entryY=0;entryDx=0;entryDy=0;exitX=0.5;exitY=1;exitDx=0;exitDy=0;" parent="1" source="FEOhGibvp6qKB15Zhyrx-14" target="FEOhGibvp6qKB15Zhyrx-15" edge="1">
          <mxGeometry width="50" height="50" relative="1" as="geometry">
            <mxPoint x="1125" y="830" as="sourcePoint" />
            <mxPoint x="1375" y="830" as="targetPoint" />
          </mxGeometry>
        </mxCell>
        <mxCell id="FEOhGibvp6qKB15Zhyrx-18" value="" style="endArrow=none;dashed=1;html=1;rounded=0;fontFamily=Helvetica;fontSize=16;fontColor=default;exitX=1;exitY=0.5;exitDx=0;exitDy=0;" parent="1" source="JByD3nCNMzfMSLDcumtZ-8" target="FEOhGibvp6qKB15Zhyrx-19" edge="1">
          <mxGeometry width="50" height="50" relative="1" as="geometry">
            <mxPoint x="400" y="310" as="sourcePoint" />
            <mxPoint x="450" y="230" as="targetPoint" />
          </mxGeometry>
        </mxCell>
        <mxCell id="FEOhGibvp6qKB15Zhyrx-19" value="&amp;nbsp; &amp;nbsp;Вычисление определителя второго порядка" style="strokeWidth=2;html=1;shape=mxgraph.flowchart.annotation_1;align=left;pointerEvents=1;verticalAlign=middle;fontFamily=Helvetica;fontSize=16;fontColor=default;fillColor=none;gradientColor=none;" parent="1" vertex="1">
          <mxGeometry x="330" y="210" width="25" height="60" as="geometry" />
        </mxCell>
        <mxCell id="FEOhGibvp6qKB15Zhyrx-20" value="" style="endArrow=none;dashed=1;html=1;rounded=0;fontFamily=Helvetica;fontSize=16;fontColor=default;exitX=1;exitY=0.5;exitDx=0;exitDy=0;" parent="1" source="JByD3nCNMzfMSLDcumtZ-14" target="FEOhGibvp6qKB15Zhyrx-21" edge="1">
          <mxGeometry width="50" height="50" relative="1" as="geometry">
            <mxPoint x="840" y="230" as="sourcePoint" />
            <mxPoint x="990" y="220" as="targetPoint" />
          </mxGeometry>
        </mxCell>
        <mxCell id="FEOhGibvp6qKB15Zhyrx-21" value="&amp;nbsp; &amp;nbsp;Вычисление определителя второго порядка" style="strokeWidth=2;html=1;shape=mxgraph.flowchart.annotation_1;align=left;pointerEvents=1;verticalAlign=middle;fontFamily=Helvetica;fontSize=16;fontColor=default;fillColor=none;gradientColor=none;" parent="1" vertex="1">
          <mxGeometry x="850" y="210" width="25" height="60" as="geometry" />
        </mxCell>
        <mxCell id="FEOhGibvp6qKB15Zhyrx-22" value="" style="endArrow=none;dashed=1;html=1;rounded=0;fontFamily=Helvetica;fontSize=16;fontColor=default;exitX=1;exitY=0.5;exitDx=0;exitDy=0;" parent="1" source="JByD3nCNMzfMSLDcumtZ-13" target="FEOhGibvp6qKB15Zhyrx-23" edge="1">
          <mxGeometry width="50" height="50" relative="1" as="geometry">
            <mxPoint x="1510" y="240" as="sourcePoint" />
            <mxPoint x="1660" y="230" as="targetPoint" />
          </mxGeometry>
        </mxCell>
        <mxCell id="FEOhGibvp6qKB15Zhyrx-23" value="&amp;nbsp; &amp;nbsp;Вычисление определителя второго порядка" style="strokeWidth=2;html=1;shape=mxgraph.flowchart.annotation_1;align=left;pointerEvents=1;verticalAlign=middle;fontFamily=Helvetica;fontSize=16;fontColor=default;fillColor=none;gradientColor=none;" parent="1" vertex="1">
          <mxGeometry x="1470" y="210" width="25" height="60" as="geometry" />
        </mxCell>
        <mxCell id="FEOhGibvp6qKB15Zhyrx-25" value="Res_Delta_X" style="shape=process;whiteSpace=wrap;html=1;backgroundOutline=1;align=center;verticalAlign=middle;fontFamily=Helvetica;fontSize=16;fontColor=default;fillColor=none;gradientColor=none;" parent="1" vertex="1">
          <mxGeometry x="260" y="570" width="120" height="60" as="geometry" />
        </mxCell>
        <mxCell id="FEOhGibvp6qKB15Zhyrx-26" value="Delta()" style="shape=process;whiteSpace=wrap;html=1;backgroundOutline=1;align=center;verticalAlign=middle;fontFamily=Helvetica;fontSize=16;fontColor=default;fillColor=none;gradientColor=none;" parent="1" vertex="1">
          <mxGeometry x="260" y="670" width="120" height="60" as="geometry" />
        </mxCell>
        <mxCell id="FEOhGibvp6qKB15Zhyrx-27" value="" style="endArrow=none;html=1;rounded=0;fontFamily=Helvetica;fontSize=16;fontColor=default;entryX=0.5;entryY=1;entryDx=0;entryDy=0;" parent="1" source="FEOhGibvp6qKB15Zhyrx-25" target="FEOhGibvp6qKB15Zhyrx-7" edge="1">
          <mxGeometry width="50" height="50" relative="1" as="geometry">
            <mxPoint x="490" y="680" as="sourcePoint" />
            <mxPoint x="540" y="630" as="targetPoint" />
          </mxGeometry>
        </mxCell>
        <mxCell id="FEOhGibvp6qKB15Zhyrx-28" value="" style="endArrow=none;html=1;rounded=0;fontFamily=Helvetica;fontSize=16;fontColor=default;entryX=0.5;entryY=0;entryDx=0;entryDy=0;exitX=0.5;exitY=1;exitDx=0;exitDy=0;" parent="1" source="FEOhGibvp6qKB15Zhyrx-25" target="FEOhGibvp6qKB15Zhyrx-26" edge="1">
          <mxGeometry width="50" height="50" relative="1" as="geometry">
            <mxPoint x="430" y="585" as="sourcePoint" />
            <mxPoint x="480" y="535" as="targetPoint" />
          </mxGeometry>
        </mxCell>
        <mxCell id="FEOhGibvp6qKB15Zhyrx-30" value="" style="endArrow=none;html=1;rounded=0;fontFamily=Helvetica;fontSize=16;fontColor=default;entryX=0.5;entryY=0;entryDx=0;entryDy=0;exitX=0.5;exitY=1;exitDx=0;exitDy=0;" parent="1" source="FEOhGibvp6qKB15Zhyrx-26" target="FEOhGibvp6qKB15Zhyrx-8" edge="1">
          <mxGeometry width="50" height="50" relative="1" as="geometry">
            <mxPoint x="480" y="655" as="sourcePoint" />
            <mxPoint x="480" y="710" as="targetPoint" />
          </mxGeometry>
        </mxCell>
        <mxCell id="FEOhGibvp6qKB15Zhyrx-31" value="Res_Delta_Y" style="shape=process;whiteSpace=wrap;html=1;backgroundOutline=1;align=center;verticalAlign=middle;fontFamily=Helvetica;fontSize=16;fontColor=default;fillColor=none;gradientColor=none;" parent="1" vertex="1">
          <mxGeometry x="835" y="570" width="120" height="60" as="geometry" />
        </mxCell>
        <mxCell id="FEOhGibvp6qKB15Zhyrx-32" value="Delta()" style="shape=process;whiteSpace=wrap;html=1;backgroundOutline=1;align=center;verticalAlign=middle;fontFamily=Helvetica;fontSize=16;fontColor=default;fillColor=none;gradientColor=none;" parent="1" vertex="1">
          <mxGeometry x="835" y="670" width="120" height="60" as="geometry" />
        </mxCell>
        <mxCell id="FEOhGibvp6qKB15Zhyrx-33" value="" style="endArrow=none;html=1;rounded=0;fontFamily=Helvetica;fontSize=16;fontColor=default;entryX=0.5;entryY=0;entryDx=0;entryDy=0;exitX=0.5;exitY=1;exitDx=0;exitDy=0;" parent="1" source="FEOhGibvp6qKB15Zhyrx-31" target="FEOhGibvp6qKB15Zhyrx-32" edge="1">
          <mxGeometry width="50" height="50" relative="1" as="geometry">
            <mxPoint x="1305" y="605" as="sourcePoint" />
            <mxPoint x="1355" y="555" as="targetPoint" />
          </mxGeometry>
        </mxCell>
        <mxCell id="FEOhGibvp6qKB15Zhyrx-34" value="" style="endArrow=none;html=1;rounded=0;fontFamily=Helvetica;fontSize=16;fontColor=default;entryX=0.5;entryY=1;entryDx=0;entryDy=0;exitX=0.5;exitY=0;exitDx=0;exitDy=0;" parent="1" source="FEOhGibvp6qKB15Zhyrx-14" target="FEOhGibvp6qKB15Zhyrx-32" edge="1">
          <mxGeometry width="50" height="50" relative="1" as="geometry">
            <mxPoint x="635" y="530" as="sourcePoint" />
            <mxPoint x="685" y="480" as="targetPoint" />
          </mxGeometry>
        </mxCell>
        <mxCell id="FEOhGibvp6qKB15Zhyrx-35" value="" style="endArrow=none;html=1;rounded=0;fontFamily=Helvetica;fontSize=16;fontColor=default;entryX=0.5;entryY=1;entryDx=0;entryDy=0;exitX=0.5;exitY=0;exitDx=0;exitDy=0;" parent="1" source="FEOhGibvp6qKB15Zhyrx-31" target="FEOhGibvp6qKB15Zhyrx-13" edge="1">
          <mxGeometry width="50" height="50" relative="1" as="geometry">
            <mxPoint x="715" y="580" as="sourcePoint" />
            <mxPoint x="765" y="530" as="targetPoint" />
          </mxGeometry>
        </mxCell>
        <mxCell id="jtaZGn-zuC6d_EoR23D8-3" value="" style="endArrow=none;dashed=1;html=1;rounded=0;fontFamily=Helvetica;fontSize=16;fontColor=default;exitX=1;exitY=0.5;exitDx=0;exitDy=0;" parent="1" source="FEOhGibvp6qKB15Zhyrx-7" target="jtaZGn-zuC6d_EoR23D8-4" edge="1">
          <mxGeometry width="50" height="50" relative="1" as="geometry">
            <mxPoint x="420" y="500" as="sourcePoint" />
            <mxPoint x="570" y="490" as="targetPoint" />
          </mxGeometry>
        </mxCell>
        <mxCell id="jtaZGn-zuC6d_EoR23D8-4" value="&amp;nbsp; &amp;nbsp;Вычисление координаты X&lt;br style=&quot;border-color: var(--border-color); text-align: center;&quot;&gt;&lt;span style=&quot;text-align: center;&quot;&gt;&amp;nbsp; &amp;nbsp;Входные данные: delta_x, delta&lt;/span&gt;&lt;br style=&quot;border-color: var(--border-color); text-align: center;&quot;&gt;&lt;span style=&quot;text-align: center;&quot;&gt;&amp;nbsp; &amp;nbsp;Выходные данные: double res_x&lt;/span&gt;" style="strokeWidth=2;html=1;shape=mxgraph.flowchart.annotation_1;align=left;pointerEvents=1;verticalAlign=middle;fontFamily=Helvetica;fontSize=16;fontColor=default;fillColor=none;gradientColor=none;" parent="1" vertex="1">
          <mxGeometry x="413" y="470" width="25" height="60" as="geometry" />
        </mxCell>
        <mxCell id="jtaZGn-zuC6d_EoR23D8-5" value="" style="endArrow=none;dashed=1;html=1;rounded=0;fontFamily=Helvetica;fontSize=16;fontColor=default;exitX=1;exitY=0.5;exitDx=0;exitDy=0;" parent="1" source="FEOhGibvp6qKB15Zhyrx-13" target="jtaZGn-zuC6d_EoR23D8-6" edge="1">
          <mxGeometry width="50" height="50" relative="1" as="geometry">
            <mxPoint x="390" y="520" as="sourcePoint" />
            <mxPoint x="580" y="510" as="targetPoint" />
          </mxGeometry>
        </mxCell>
        <mxCell id="jtaZGn-zuC6d_EoR23D8-6" value="&amp;nbsp; &amp;nbsp;Вычисление координаты Y&lt;br style=&quot;border-color: var(--border-color); text-align: center;&quot;&gt;&lt;span style=&quot;text-align: center;&quot;&gt;&amp;nbsp; &amp;nbsp;Входные данные: delta_y, delta&lt;/span&gt;&lt;br style=&quot;border-color: var(--border-color); text-align: center;&quot;&gt;&lt;span style=&quot;text-align: center;&quot;&gt;&amp;nbsp; &amp;nbsp;Выходные данные: double res_y&lt;br&gt;&lt;/span&gt;" style="strokeWidth=2;html=1;shape=mxgraph.flowchart.annotation_1;align=left;pointerEvents=1;verticalAlign=middle;fontFamily=Helvetica;fontSize=16;fontColor=default;fillColor=none;gradientColor=none;" parent="1" vertex="1">
          <mxGeometry x="990" y="470" width="25" height="60" as="geometry" />
        </mxCell>
        <mxCell id="jtaZGn-zuC6d_EoR23D8-9" value="" style="endArrow=none;dashed=1;html=1;rounded=0;fontFamily=Helvetica;fontSize=16;fontColor=default;exitX=1;exitY=0.5;exitDx=0;exitDy=0;" parent="1" source="FEOhGibvp6qKB15Zhyrx-25" target="jtaZGn-zuC6d_EoR23D8-10" edge="1">
          <mxGeometry width="50" height="50" relative="1" as="geometry">
            <mxPoint x="383" y="600" as="sourcePoint" />
            <mxPoint x="533" y="590" as="targetPoint" />
          </mxGeometry>
        </mxCell>
        <mxCell id="jtaZGn-zuC6d_EoR23D8-10" value="&amp;nbsp; &amp;nbsp;Вычисление определителя второго порядка" style="strokeWidth=2;html=1;shape=mxgraph.flowchart.annotation_1;align=left;pointerEvents=1;verticalAlign=middle;fontFamily=Helvetica;fontSize=16;fontColor=default;fillColor=none;gradientColor=none;" parent="1" vertex="1">
          <mxGeometry x="413" y="570" width="25" height="60" as="geometry" />
        </mxCell>
        <mxCell id="jtaZGn-zuC6d_EoR23D8-11" value="" style="endArrow=none;dashed=1;html=1;rounded=0;fontFamily=Helvetica;fontSize=16;fontColor=default;exitX=1;exitY=0.5;exitDx=0;exitDy=0;" parent="1" source="FEOhGibvp6qKB15Zhyrx-31" target="jtaZGn-zuC6d_EoR23D8-12" edge="1">
          <mxGeometry width="50" height="50" relative="1" as="geometry">
            <mxPoint x="955" y="600" as="sourcePoint" />
            <mxPoint x="1105" y="590" as="targetPoint" />
          </mxGeometry>
        </mxCell>
        <mxCell id="jtaZGn-zuC6d_EoR23D8-12" value="&amp;nbsp; &amp;nbsp;Вычисление определителя второго порядка" style="strokeWidth=2;html=1;shape=mxgraph.flowchart.annotation_1;align=left;pointerEvents=1;verticalAlign=middle;fontFamily=Helvetica;fontSize=16;fontColor=default;fillColor=none;gradientColor=none;" parent="1" vertex="1">
          <mxGeometry x="985" y="570" width="25" height="60" as="geometry" />
        </mxCell>
        <mxCell id="jtaZGn-zuC6d_EoR23D8-13" value="" style="endArrow=none;dashed=1;html=1;rounded=0;fontFamily=Helvetica;fontSize=16;fontColor=default;exitX=1;exitY=0.5;exitDx=0;exitDy=0;" parent="1" source="FEOhGibvp6qKB15Zhyrx-26" target="jtaZGn-zuC6d_EoR23D8-14" edge="1">
          <mxGeometry width="50" height="50" relative="1" as="geometry">
            <mxPoint x="380" y="700" as="sourcePoint" />
            <mxPoint x="530" y="690" as="targetPoint" />
          </mxGeometry>
        </mxCell>
        <mxCell id="jtaZGn-zuC6d_EoR23D8-14" value="&amp;nbsp; &amp;nbsp;Вычисление определителя второго порядка" style="strokeWidth=2;html=1;shape=mxgraph.flowchart.annotation_1;align=left;pointerEvents=1;verticalAlign=middle;fontFamily=Helvetica;fontSize=16;fontColor=default;fillColor=none;gradientColor=none;" parent="1" vertex="1">
          <mxGeometry x="410" y="670" width="25" height="60" as="geometry" />
        </mxCell>
        <mxCell id="jtaZGn-zuC6d_EoR23D8-15" value="" style="endArrow=none;dashed=1;html=1;rounded=0;fontFamily=Helvetica;fontSize=16;fontColor=default;exitX=1;exitY=0.5;exitDx=0;exitDy=0;" parent="1" source="FEOhGibvp6qKB15Zhyrx-32" target="jtaZGn-zuC6d_EoR23D8-16" edge="1">
          <mxGeometry width="50" height="50" relative="1" as="geometry">
            <mxPoint x="955" y="700" as="sourcePoint" />
            <mxPoint x="1105" y="690" as="targetPoint" />
          </mxGeometry>
        </mxCell>
        <mxCell id="jtaZGn-zuC6d_EoR23D8-16" value="&amp;nbsp; &amp;nbsp;Вычисление определителя второго порядка" style="strokeWidth=2;html=1;shape=mxgraph.flowchart.annotation_1;align=left;pointerEvents=1;verticalAlign=middle;fontFamily=Helvetica;fontSize=16;fontColor=default;fillColor=none;gradientColor=none;" parent="1" vertex="1">
          <mxGeometry x="985" y="670" width="25" height="60" as="geometry" />
        </mxCell>
        <mxCell id="jtaZGn-zuC6d_EoR23D8-17" value="" style="endArrow=none;dashed=1;html=1;rounded=0;fontFamily=Helvetica;fontSize=16;fontColor=default;exitX=1;exitY=0.5;exitDx=0;exitDy=0;" parent="1" source="FEOhGibvp6qKB15Zhyrx-14" target="jtaZGn-zuC6d_EoR23D8-18" edge="1">
          <mxGeometry width="50" height="50" relative="1" as="geometry">
            <mxPoint x="955" y="805" as="sourcePoint" />
            <mxPoint x="1105" y="795" as="targetPoint" />
          </mxGeometry>
        </mxCell>
        <mxCell id="jtaZGn-zuC6d_EoR23D8-18" value="&amp;nbsp; &amp;nbsp;Вычисление координаты Y" style="strokeWidth=2;html=1;shape=mxgraph.flowchart.annotation_1;align=left;pointerEvents=1;verticalAlign=middle;fontFamily=Helvetica;fontSize=16;fontColor=default;fillColor=none;gradientColor=none;" parent="1" vertex="1">
          <mxGeometry x="985" y="775" width="25" height="60" as="geometry" />
        </mxCell>
        <mxCell id="jtaZGn-zuC6d_EoR23D8-19" value="" style="endArrow=none;dashed=1;html=1;rounded=0;fontFamily=Helvetica;fontSize=16;fontColor=default;exitX=1;exitY=0.5;exitDx=0;exitDy=0;" parent="1" source="FEOhGibvp6qKB15Zhyrx-8" target="jtaZGn-zuC6d_EoR23D8-20" edge="1">
          <mxGeometry width="50" height="50" relative="1" as="geometry">
            <mxPoint x="410" y="800" as="sourcePoint" />
            <mxPoint x="560" y="790" as="targetPoint" />
          </mxGeometry>
        </mxCell>
        <mxCell id="jtaZGn-zuC6d_EoR23D8-20" value="&amp;nbsp; &amp;nbsp;Вычисление координаты X" style="strokeWidth=2;html=1;shape=mxgraph.flowchart.annotation_1;align=left;pointerEvents=1;verticalAlign=middle;fontFamily=Helvetica;fontSize=16;fontColor=default;fillColor=none;gradientColor=none;" parent="1" vertex="1">
          <mxGeometry x="410" y="770" width="25" height="60" as="geometry" />
        </mxCell>
      </root>
    </mxGraphModel>
  </diagram>
  <diagram id="bSsHOiA-EXmUTwZNhqXW" name="Страница — 4">
    <mxGraphModel dx="2305" dy="1309" grid="1" gridSize="10" guides="1" tooltips="1" connect="1" arrows="1" fold="1" page="1" pageScale="1" pageWidth="827" pageHeight="1169" math="0" shadow="0">
      <root>
        <mxCell id="0" />
        <mxCell id="1" parent="0" />
        <mxCell id="sax8-hh7cYWmfM-RZOj1-2" value="Input_user" style="rounded=0;whiteSpace=wrap;html=1;align=center;verticalAlign=middle;fontFamily=Helvetica;fontSize=16;fontColor=#000000;fillColor=#1ba1e2;labelBackgroundColor=#1ba1e2;strokeColor=#006EAF;" parent="1" vertex="1">
          <mxGeometry x="130" y="240" width="120" height="60" as="geometry" />
        </mxCell>
        <mxCell id="sax8-hh7cYWmfM-RZOj1-5" value="" style="endArrow=none;html=1;rounded=0;fontFamily=Helvetica;fontSize=16;fontColor=default;entryX=0.5;entryY=1;entryDx=0;entryDy=0;" parent="1" target="Ld2z6YMsv8Fg3z-BrwF2-3" edge="1">
          <mxGeometry width="50" height="50" relative="1" as="geometry">
            <mxPoint x="400" y="200" as="sourcePoint" />
            <mxPoint x="400" y="180" as="targetPoint" />
          </mxGeometry>
        </mxCell>
        <mxCell id="sax8-hh7cYWmfM-RZOj1-12" value="" style="endArrow=none;html=1;rounded=0;fontFamily=Helvetica;fontSize=16;fontColor=default;exitX=0.5;exitY=0;exitDx=0;exitDy=0;" parent="1" source="sax8-hh7cYWmfM-RZOj1-2" edge="1">
          <mxGeometry width="50" height="50" relative="1" as="geometry">
            <mxPoint x="200" y="230" as="sourcePoint" />
            <mxPoint x="400" y="200" as="targetPoint" />
            <Array as="points">
              <mxPoint x="190" y="200" />
            </Array>
          </mxGeometry>
        </mxCell>
        <mxCell id="sax8-hh7cYWmfM-RZOj1-13" value="" style="endArrow=none;html=1;rounded=0;fontFamily=Helvetica;fontSize=16;fontColor=default;exitX=0.5;exitY=0;exitDx=0;exitDy=0;" parent="1" source="Ld2z6YMsv8Fg3z-BrwF2-1" edge="1">
          <mxGeometry width="50" height="50" relative="1" as="geometry">
            <mxPoint x="620" y="240" as="sourcePoint" />
            <mxPoint x="400" y="200" as="targetPoint" />
            <Array as="points">
              <mxPoint x="620" y="200" />
            </Array>
          </mxGeometry>
        </mxCell>
        <mxCell id="sax8-hh7cYWmfM-RZOj1-14" value="" style="endArrow=none;html=1;rounded=0;fontFamily=Helvetica;fontSize=16;fontColor=default;exitX=0.5;exitY=0;exitDx=0;exitDy=0;" parent="1" source="Ld2z6YMsv8Fg3z-BrwF2-2" edge="1">
          <mxGeometry width="50" height="50" relative="1" as="geometry">
            <mxPoint x="400" y="240" as="sourcePoint" />
            <mxPoint x="400" y="200" as="targetPoint" />
          </mxGeometry>
        </mxCell>
        <mxCell id="Ld2z6YMsv8Fg3z-BrwF2-1" value="Out_info" style="rounded=0;whiteSpace=wrap;html=1;align=center;verticalAlign=middle;fontFamily=Helvetica;fontSize=16;fontColor=#000000;fillColor=#1ba1e2;labelBackgroundColor=#1ba1e2;strokeColor=#006EAF;" parent="1" vertex="1">
          <mxGeometry x="560" y="240" width="120" height="60" as="geometry" />
        </mxCell>
        <mxCell id="Ld2z6YMsv8Fg3z-BrwF2-2" value="Result" style="rounded=0;whiteSpace=wrap;html=1;align=center;verticalAlign=middle;fontFamily=Helvetica;fontSize=16;fontColor=#000000;fillColor=#1ba1e2;labelBackgroundColor=#1ba1e2;strokeColor=#006EAF;" parent="1" vertex="1">
          <mxGeometry x="340" y="240" width="120" height="60" as="geometry" />
        </mxCell>
        <mxCell id="Ld2z6YMsv8Fg3z-BrwF2-3" value="void button()" style="rounded=0;whiteSpace=wrap;html=1;align=center;verticalAlign=middle;fontFamily=Helvetica;fontSize=16;fontColor=#000000;fillColor=#1ba1e2;labelBackgroundColor=#1ba1e2;strokeColor=#006EAF;" parent="1" vertex="1">
          <mxGeometry x="340" y="120" width="120" height="60" as="geometry" />
        </mxCell>
        <mxCell id="Ld2z6YMsv8Fg3z-BrwF2-4" value="" style="endArrow=none;html=1;rounded=0;fontFamily=Helvetica;fontSize=16;fontColor=default;entryX=0.5;entryY=1;entryDx=0;entryDy=0;" parent="1" target="Ld2z6YMsv8Fg3z-BrwF2-2" edge="1">
          <mxGeometry width="50" height="50" relative="1" as="geometry">
            <mxPoint x="400" y="340" as="sourcePoint" />
            <mxPoint x="400" y="330" as="targetPoint" />
          </mxGeometry>
        </mxCell>
        <mxCell id="Ld2z6YMsv8Fg3z-BrwF2-7" value="Res_Delta_X" style="rounded=0;whiteSpace=wrap;html=1;align=center;verticalAlign=middle;fontFamily=Helvetica;fontSize=16;fontColor=#000000;fillColor=#1ba1e2;labelBackgroundColor=#1ba1e2;strokeColor=#006EAF;" parent="1" vertex="1">
          <mxGeometry x="340" y="380" width="120" height="60" as="geometry" />
        </mxCell>
        <mxCell id="Ld2z6YMsv8Fg3z-BrwF2-8" value="Res_Delta_Y" style="rounded=0;whiteSpace=wrap;html=1;align=center;verticalAlign=middle;fontFamily=Helvetica;fontSize=16;fontColor=#000000;fillColor=#1ba1e2;labelBackgroundColor=#1ba1e2;strokeColor=#006EAF;" parent="1" vertex="1">
          <mxGeometry x="520" y="380" width="120" height="60" as="geometry" />
        </mxCell>
        <mxCell id="Ld2z6YMsv8Fg3z-BrwF2-9" value="Delta()" style="rounded=0;whiteSpace=wrap;html=1;align=center;verticalAlign=middle;fontFamily=Helvetica;fontSize=16;fontColor=#000000;fillColor=#1ba1e2;labelBackgroundColor=#1ba1e2;strokeColor=#006EAF;" parent="1" vertex="1">
          <mxGeometry x="160" y="380" width="120" height="60" as="geometry" />
        </mxCell>
        <mxCell id="Ld2z6YMsv8Fg3z-BrwF2-12" value="res_x" style="rounded=0;whiteSpace=wrap;html=1;align=center;verticalAlign=middle;fontFamily=Helvetica;fontSize=16;fontColor=#000000;fillColor=#1ba1e2;labelBackgroundColor=#1ba1e2;strokeColor=#006EAF;" parent="1" vertex="1">
          <mxGeometry x="250" y="510" width="120" height="60" as="geometry" />
        </mxCell>
        <mxCell id="Ld2z6YMsv8Fg3z-BrwF2-13" value="res_y" style="rounded=0;whiteSpace=wrap;html=1;align=center;verticalAlign=middle;fontFamily=Helvetica;fontSize=16;fontColor=#000000;fillColor=#1ba1e2;labelBackgroundColor=#1ba1e2;strokeColor=#006EAF;" parent="1" vertex="1">
          <mxGeometry x="430" y="510" width="120" height="60" as="geometry" />
        </mxCell>
        <mxCell id="Ld2z6YMsv8Fg3z-BrwF2-14" value="" style="endArrow=none;html=1;rounded=0;fontFamily=Helvetica;fontSize=16;fontColor=default;entryX=0.5;entryY=1;entryDx=0;entryDy=0;" parent="1" target="Ld2z6YMsv8Fg3z-BrwF2-9" edge="1">
          <mxGeometry width="50" height="50" relative="1" as="geometry">
            <mxPoint x="400" y="470" as="sourcePoint" />
            <mxPoint x="180" y="460" as="targetPoint" />
            <Array as="points">
              <mxPoint x="220" y="470" />
            </Array>
          </mxGeometry>
        </mxCell>
        <mxCell id="Ld2z6YMsv8Fg3z-BrwF2-15" value="" style="endArrow=none;html=1;rounded=0;fontFamily=Helvetica;fontSize=16;fontColor=default;entryX=0.5;entryY=1;entryDx=0;entryDy=0;" parent="1" target="Ld2z6YMsv8Fg3z-BrwF2-8" edge="1">
          <mxGeometry width="50" height="50" relative="1" as="geometry">
            <mxPoint x="400" y="470" as="sourcePoint" />
            <mxPoint x="490" y="440" as="targetPoint" />
            <Array as="points">
              <mxPoint x="580" y="470" />
            </Array>
          </mxGeometry>
        </mxCell>
        <mxCell id="Ld2z6YMsv8Fg3z-BrwF2-16" value="" style="endArrow=none;html=1;rounded=0;fontFamily=Helvetica;fontSize=16;fontColor=default;entryX=0.5;entryY=1;entryDx=0;entryDy=0;" parent="1" target="Ld2z6YMsv8Fg3z-BrwF2-7" edge="1">
          <mxGeometry width="50" height="50" relative="1" as="geometry">
            <mxPoint x="400" y="470" as="sourcePoint" />
            <mxPoint x="410" y="400" as="targetPoint" />
          </mxGeometry>
        </mxCell>
        <mxCell id="Ld2z6YMsv8Fg3z-BrwF2-17" value="" style="endArrow=none;html=1;rounded=0;fontFamily=Helvetica;fontSize=16;fontColor=default;" parent="1" edge="1">
          <mxGeometry width="50" height="50" relative="1" as="geometry">
            <mxPoint x="400" y="490" as="sourcePoint" />
            <mxPoint x="400" y="470" as="targetPoint" />
          </mxGeometry>
        </mxCell>
        <mxCell id="Ld2z6YMsv8Fg3z-BrwF2-19" value="" style="endArrow=none;html=1;rounded=0;fontFamily=Helvetica;fontSize=16;fontColor=default;exitX=0.5;exitY=0;exitDx=0;exitDy=0;" parent="1" source="Ld2z6YMsv8Fg3z-BrwF2-13" edge="1">
          <mxGeometry width="50" height="50" relative="1" as="geometry">
            <mxPoint x="410" y="500" as="sourcePoint" />
            <mxPoint x="400" y="490" as="targetPoint" />
            <Array as="points">
              <mxPoint x="490" y="490" />
            </Array>
          </mxGeometry>
        </mxCell>
        <mxCell id="Ld2z6YMsv8Fg3z-BrwF2-20" value="" style="endArrow=none;html=1;rounded=0;fontFamily=Helvetica;fontSize=16;fontColor=default;exitX=0.5;exitY=0;exitDx=0;exitDy=0;" parent="1" source="Ld2z6YMsv8Fg3z-BrwF2-12" edge="1">
          <mxGeometry width="50" height="50" relative="1" as="geometry">
            <mxPoint x="420" y="510" as="sourcePoint" />
            <mxPoint x="400" y="490" as="targetPoint" />
            <Array as="points">
              <mxPoint x="310" y="490" />
            </Array>
          </mxGeometry>
        </mxCell>
        <mxCell id="Ld2z6YMsv8Fg3z-BrwF2-21" value="" style="endArrow=none;html=1;rounded=0;fontFamily=Helvetica;fontSize=16;fontColor=default;exitX=0.5;exitY=0;exitDx=0;exitDy=0;" parent="1" source="Ld2z6YMsv8Fg3z-BrwF2-9" edge="1">
          <mxGeometry width="50" height="50" relative="1" as="geometry">
            <mxPoint x="230" y="360" as="sourcePoint" />
            <mxPoint x="400" y="360" as="targetPoint" />
            <Array as="points">
              <mxPoint x="220" y="360" />
            </Array>
          </mxGeometry>
        </mxCell>
        <mxCell id="Ld2z6YMsv8Fg3z-BrwF2-22" value="" style="endArrow=none;html=1;rounded=0;fontFamily=Helvetica;fontSize=16;fontColor=default;" parent="1" edge="1">
          <mxGeometry width="50" height="50" relative="1" as="geometry">
            <mxPoint x="400" y="360" as="sourcePoint" />
            <mxPoint x="400" y="340" as="targetPoint" />
          </mxGeometry>
        </mxCell>
        <mxCell id="Ld2z6YMsv8Fg3z-BrwF2-23" value="" style="endArrow=none;html=1;rounded=0;fontFamily=Helvetica;fontSize=16;fontColor=default;exitX=0.5;exitY=0;exitDx=0;exitDy=0;" parent="1" source="Ld2z6YMsv8Fg3z-BrwF2-8" edge="1">
          <mxGeometry width="50" height="50" relative="1" as="geometry">
            <mxPoint x="470" y="360" as="sourcePoint" />
            <mxPoint x="400" y="360" as="targetPoint" />
            <Array as="points">
              <mxPoint x="580" y="360" />
            </Array>
          </mxGeometry>
        </mxCell>
        <mxCell id="Ld2z6YMsv8Fg3z-BrwF2-24" value="" style="endArrow=none;html=1;rounded=0;fontFamily=Helvetica;fontSize=16;fontColor=default;exitX=0.5;exitY=0;exitDx=0;exitDy=0;" parent="1" source="Ld2z6YMsv8Fg3z-BrwF2-7" edge="1">
          <mxGeometry width="50" height="50" relative="1" as="geometry">
            <mxPoint x="480" y="370" as="sourcePoint" />
            <mxPoint x="400" y="360" as="targetPoint" />
          </mxGeometry>
        </mxCell>
      </root>
    </mxGraphModel>
  </diagram>
  <diagram name="Страница — 1" id="E9ZGrAIBP750GKSQOr7r">
    <mxGraphModel dx="922" dy="524" grid="1" gridSize="10" guides="1" tooltips="1" connect="1" arrows="1" fold="1" page="1" pageScale="1" pageWidth="827" pageHeight="1169" math="0" shadow="0">
      <root>
        <mxCell id="0" />
        <mxCell id="1" parent="0" />
        <mxCell id="rMw0RNn5V5dWzahoys3A-1" value="Начало&lt;br&gt;Make_result_lab4_Click" style="rounded=1;whiteSpace=wrap;html=1;arcSize=50;" vertex="1" parent="1">
          <mxGeometry x="340" y="60" width="140" height="60" as="geometry" />
        </mxCell>
        <mxCell id="rMw0RNn5V5dWzahoys3A-2" value="" style="endArrow=none;html=1;rounded=0;entryX=0.5;entryY=1;entryDx=0;entryDy=0;exitX=0.5;exitY=0;exitDx=0;exitDy=0;" edge="1" parent="1" source="rMw0RNn5V5dWzahoys3A-3" target="rMw0RNn5V5dWzahoys3A-1">
          <mxGeometry width="50" height="50" relative="1" as="geometry">
            <mxPoint x="410" y="160" as="sourcePoint" />
            <mxPoint x="450" y="200" as="targetPoint" />
          </mxGeometry>
        </mxCell>
        <mxCell id="rMw0RNn5V5dWzahoys3A-3" value="double a = Lab_dll.Input_user(Input_a_lab4);" style="shape=process;whiteSpace=wrap;html=1;backgroundOutline=1;" vertex="1" parent="1">
          <mxGeometry x="255" y="140" width="310" height="60" as="geometry" />
        </mxCell>
        <mxCell id="rMw0RNn5V5dWzahoys3A-4" value="" style="endArrow=none;html=1;rounded=0;exitX=0.5;exitY=1;exitDx=0;exitDy=0;" edge="1" parent="1" source="rMw0RNn5V5dWzahoys3A-3" target="rMw0RNn5V5dWzahoys3A-5">
          <mxGeometry width="50" height="50" relative="1" as="geometry">
            <mxPoint x="400" y="380" as="sourcePoint" />
            <mxPoint x="450" y="330" as="targetPoint" />
          </mxGeometry>
        </mxCell>
        <mxCell id="rMw0RNn5V5dWzahoys3A-5" value="double x = Lab_dll.Input_user(Input_x_lab4);" style="shape=process;whiteSpace=wrap;html=1;backgroundOutline=1;" vertex="1" parent="1">
          <mxGeometry x="255" y="240" width="310" height="60" as="geometry" />
        </mxCell>
        <mxCell id="rMw0RNn5V5dWzahoys3A-7" value="" style="endArrow=none;html=1;rounded=0;exitX=0.5;exitY=1;exitDx=0;exitDy=0;" edge="1" parent="1" source="rMw0RNn5V5dWzahoys3A-5" target="rMw0RNn5V5dWzahoys3A-8">
          <mxGeometry width="50" height="50" relative="1" as="geometry">
            <mxPoint x="290" y="310" as="sourcePoint" />
            <mxPoint x="340" y="260" as="targetPoint" />
          </mxGeometry>
        </mxCell>
        <mxCell id="rMw0RNn5V5dWzahoys3A-8" value="double y = Lab_dll.Input_user(Input_y_lab4);" style="shape=process;whiteSpace=wrap;html=1;backgroundOutline=1;" vertex="1" parent="1">
          <mxGeometry x="255" y="340" width="310" height="60" as="geometry" />
        </mxCell>
        <mxCell id="rMw0RNn5V5dWzahoys3A-9" value="double return_result = Lab_dll.Lab4_Make_result(a, x, y);" style="shape=process;whiteSpace=wrap;html=1;backgroundOutline=1;" vertex="1" parent="1">
          <mxGeometry x="217.5" y="440" width="385" height="60" as="geometry" />
        </mxCell>
        <mxCell id="rMw0RNn5V5dWzahoys3A-10" value="" style="endArrow=none;html=1;rounded=0;entryX=0.5;entryY=1;entryDx=0;entryDy=0;exitX=0.5;exitY=0;exitDx=0;exitDy=0;" edge="1" parent="1" source="rMw0RNn5V5dWzahoys3A-9" target="rMw0RNn5V5dWzahoys3A-8">
          <mxGeometry width="50" height="50" relative="1" as="geometry">
            <mxPoint x="290" y="310" as="sourcePoint" />
            <mxPoint x="340" y="260" as="targetPoint" />
          </mxGeometry>
        </mxCell>
        <mxCell id="rMw0RNn5V5dWzahoys3A-11" value="" style="endArrow=none;html=1;rounded=0;exitX=0.5;exitY=1;exitDx=0;exitDy=0;" edge="1" parent="1" source="rMw0RNn5V5dWzahoys3A-9" target="rMw0RNn5V5dWzahoys3A-12">
          <mxGeometry width="50" height="50" relative="1" as="geometry">
            <mxPoint x="290" y="520" as="sourcePoint" />
            <mxPoint x="340" y="470" as="targetPoint" />
          </mxGeometry>
        </mxCell>
        <mxCell id="rMw0RNn5V5dWzahoys3A-12" value="Lab_dll.Out_info(lab4_result_d, return_result);" style="shape=process;whiteSpace=wrap;html=1;backgroundOutline=1;" vertex="1" parent="1">
          <mxGeometry x="255" y="540" width="310" height="60" as="geometry" />
        </mxCell>
        <mxCell id="rMw0RNn5V5dWzahoys3A-13" value="" style="endArrow=none;html=1;rounded=0;exitX=0.5;exitY=1;exitDx=0;exitDy=0;" edge="1" parent="1" source="rMw0RNn5V5dWzahoys3A-12" target="rMw0RNn5V5dWzahoys3A-14">
          <mxGeometry width="50" height="50" relative="1" as="geometry">
            <mxPoint x="290" y="630" as="sourcePoint" />
            <mxPoint x="340" y="580" as="targetPoint" />
          </mxGeometry>
        </mxCell>
        <mxCell id="rMw0RNn5V5dWzahoys3A-14" value="Конец&lt;br&gt;Make_result_lab4_Click" style="rounded=1;whiteSpace=wrap;html=1;arcSize=50;" vertex="1" parent="1">
          <mxGeometry x="340" y="640" width="140" height="60" as="geometry" />
        </mxCell>
        <mxCell id="rMw0RNn5V5dWzahoys3A-31" value="" style="endArrow=none;dashed=1;html=1;rounded=0;exitX=1;exitY=0.5;exitDx=0;exitDy=0;" edge="1" target="rMw0RNn5V5dWzahoys3A-32" parent="1" source="rMw0RNn5V5dWzahoys3A-3">
          <mxGeometry width="50" height="50" relative="1" as="geometry">
            <mxPoint x="570" y="170" as="sourcePoint" />
            <mxPoint x="620.31" y="170.4199999999999" as="targetPoint" />
          </mxGeometry>
        </mxCell>
        <mxCell id="rMw0RNn5V5dWzahoys3A-32" value="&amp;nbsp; &amp;nbsp; &amp;nbsp; Ввод переменной a" style="strokeWidth=2;html=1;shape=mxgraph.flowchart.annotation_1;align=left;pointerEvents=1;" vertex="1" parent="1">
          <mxGeometry x="610" y="130" width="20" height="80" as="geometry" />
        </mxCell>
        <mxCell id="rMw0RNn5V5dWzahoys3A-44" value="" style="endArrow=none;dashed=1;html=1;rounded=0;exitX=1;exitY=0.5;exitDx=0;exitDy=0;" edge="1" parent="1" target="rMw0RNn5V5dWzahoys3A-45" source="rMw0RNn5V5dWzahoys3A-5">
          <mxGeometry width="50" height="50" relative="1" as="geometry">
            <mxPoint x="570" y="270" as="sourcePoint" />
            <mxPoint x="620.31" y="270.4199999999999" as="targetPoint" />
          </mxGeometry>
        </mxCell>
        <mxCell id="rMw0RNn5V5dWzahoys3A-45" value="&amp;nbsp; &amp;nbsp; &amp;nbsp; Ввод переменной x" style="strokeWidth=2;html=1;shape=mxgraph.flowchart.annotation_1;align=left;pointerEvents=1;" vertex="1" parent="1">
          <mxGeometry x="610" y="230" width="20" height="80" as="geometry" />
        </mxCell>
        <mxCell id="rMw0RNn5V5dWzahoys3A-46" value="" style="endArrow=none;dashed=1;html=1;rounded=0;exitX=1;exitY=0.5;exitDx=0;exitDy=0;" edge="1" parent="1" target="rMw0RNn5V5dWzahoys3A-47" source="rMw0RNn5V5dWzahoys3A-8">
          <mxGeometry width="50" height="50" relative="1" as="geometry">
            <mxPoint x="580" y="360" as="sourcePoint" />
            <mxPoint x="635.31" y="370.4199999999999" as="targetPoint" />
          </mxGeometry>
        </mxCell>
        <mxCell id="rMw0RNn5V5dWzahoys3A-47" value="&amp;nbsp; &amp;nbsp; &amp;nbsp; Ввод переменной y" style="strokeWidth=2;html=1;shape=mxgraph.flowchart.annotation_1;align=left;pointerEvents=1;" vertex="1" parent="1">
          <mxGeometry x="625" y="330" width="20" height="80" as="geometry" />
        </mxCell>
        <mxCell id="rMw0RNn5V5dWzahoys3A-48" value="" style="endArrow=none;dashed=1;html=1;rounded=0;exitX=1;exitY=0.5;exitDx=0;exitDy=0;" edge="1" target="rMw0RNn5V5dWzahoys3A-49" parent="1" source="rMw0RNn5V5dWzahoys3A-9">
          <mxGeometry width="50" height="50" relative="1" as="geometry">
            <mxPoint x="645" y="459.99999999999983" as="sourcePoint" />
            <mxPoint x="690.31" y="460.4199999999999" as="targetPoint" />
          </mxGeometry>
        </mxCell>
        <mxCell id="rMw0RNn5V5dWzahoys3A-49" value="&amp;nbsp; &amp;nbsp; &amp;nbsp;Вычисление значения m" style="strokeWidth=2;html=1;shape=mxgraph.flowchart.annotation_1;align=left;pointerEvents=1;" vertex="1" parent="1">
          <mxGeometry x="645" y="430" width="20" height="80" as="geometry" />
        </mxCell>
        <mxCell id="rMw0RNn5V5dWzahoys3A-50" value="" style="endArrow=none;dashed=1;html=1;rounded=0;exitX=1;exitY=0.5;exitDx=0;exitDy=0;" edge="1" target="rMw0RNn5V5dWzahoys3A-51" parent="1" source="rMw0RNn5V5dWzahoys3A-12">
          <mxGeometry width="50" height="50" relative="1" as="geometry">
            <mxPoint x="650" y="555" as="sourcePoint" />
            <mxPoint x="959.81" y="535.4199999999998" as="targetPoint" />
          </mxGeometry>
        </mxCell>
        <mxCell id="rMw0RNn5V5dWzahoys3A-51" value="&amp;nbsp; &amp;nbsp; &amp;nbsp;Вывод значения m" style="strokeWidth=2;html=1;shape=mxgraph.flowchart.annotation_1;align=left;pointerEvents=1;" vertex="1" parent="1">
          <mxGeometry x="645" y="530" width="20" height="80" as="geometry" />
        </mxCell>
      </root>
    </mxGraphModel>
  </diagram>
  <diagram name="Страница — 2" id="QYV3lCwpcWg1E-T3ve4x">
    <mxGraphModel dx="2792" dy="1091" grid="1" gridSize="10" guides="1" tooltips="1" connect="1" arrows="1" fold="1" page="1" pageScale="1" pageWidth="827" pageHeight="1169" math="0" shadow="0">
      <root>
        <mxCell id="0" />
        <mxCell id="1" parent="0" />
        <mxCell id="IG7zMW9V_TZmOPMzyRXg-1" value="" style="rounded=1;whiteSpace=wrap;html=1;align=center;verticalAlign=middle;fontFamily=Helvetica;fontSize=24;fontColor=default;fillColor=none;gradientColor=none;arcSize=50;" parent="1" vertex="1">
          <mxGeometry x="-470" y="26.880000000000003" width="213" height="116.25" as="geometry" />
        </mxCell>
        <mxCell id="IG7zMW9V_TZmOPMzyRXg-2" value="" style="endArrow=none;html=1;rounded=0;fontFamily=Helvetica;fontSize=24;fontColor=default;exitX=0.5;exitY=0;exitDx=0;exitDy=0;entryX=0.509;entryY=1.02;entryDx=0;entryDy=0;entryPerimeter=0;" parent="1" source="IG7zMW9V_TZmOPMzyRXg-25" target="IG7zMW9V_TZmOPMzyRXg-3" edge="1">
          <mxGeometry width="50" height="50" relative="1" as="geometry">
            <mxPoint x="-199.99999999999955" y="340" as="sourcePoint" />
            <mxPoint x="-199.99749999999972" y="290" as="targetPoint" />
          </mxGeometry>
        </mxCell>
        <mxCell id="IG7zMW9V_TZmOPMzyRXg-3" value="" style="shape=process;whiteSpace=wrap;html=1;backgroundOutline=1;align=center;verticalAlign=middle;fontFamily=Helvetica;fontSize=24;fontColor=default;fillColor=none;gradientColor=none;" parent="1" vertex="1">
          <mxGeometry x="-468.37" y="190" width="209.75" height="100" as="geometry" />
        </mxCell>
        <mxCell id="IG7zMW9V_TZmOPMzyRXg-10" value="" style="endArrow=none;dashed=1;html=1;rounded=0;fontFamily=Helvetica;fontSize=24;fontColor=default;exitX=1;exitY=0.5;exitDx=0;exitDy=0;" parent="1" source="IG7zMW9V_TZmOPMzyRXg-1" target="IG7zMW9V_TZmOPMzyRXg-11" edge="1">
          <mxGeometry width="50" height="50" relative="1" as="geometry">
            <mxPoint x="-194" y="90" as="sourcePoint" />
            <mxPoint x="-174" y="90" as="targetPoint" />
          </mxGeometry>
        </mxCell>
        <mxCell id="IG7zMW9V_TZmOPMzyRXg-11" value="" style="strokeWidth=2;html=1;shape=mxgraph.flowchart.annotation_1;align=left;pointerEvents=1;verticalAlign=middle;fontFamily=Helvetica;fontSize=24;fontColor=default;fillColor=none;gradientColor=none;" parent="1" vertex="1">
          <mxGeometry x="-184" y="20" width="20" height="130" as="geometry" />
        </mxCell>
        <mxCell id="IG7zMW9V_TZmOPMzyRXg-12" value="&lt;font style=&quot;font-size: 24px;&quot;&gt;Вычисление точки пересечения&lt;br&gt;Входные параметры:&lt;br style=&quot;border-color: var(--border-color);&quot;&gt;a1, a2, b1, b2, c1, c2&lt;br&gt;Выходные параметры: double&lt;/font&gt;" style="text;strokeColor=none;fillColor=none;html=1;fontSize=16;fontStyle=0;verticalAlign=middle;align=left;fontFamily=Helvetica;fontColor=default;" parent="1" vertex="1">
          <mxGeometry x="-164" y="26.88" width="236" height="110" as="geometry" />
        </mxCell>
        <mxCell id="IG7zMW9V_TZmOPMzyRXg-21" value="" style="endArrow=none;html=1;rounded=0;fontFamily=Helvetica;fontSize=16;fontColor=default;entryX=0.5;entryY=1;entryDx=0;entryDy=0;exitX=0.5;exitY=0;exitDx=0;exitDy=0;" parent="1" source="IG7zMW9V_TZmOPMzyRXg-3" target="IG7zMW9V_TZmOPMzyRXg-1" edge="1">
          <mxGeometry width="50" height="50" relative="1" as="geometry">
            <mxPoint x="-510" y="320" as="sourcePoint" />
            <mxPoint x="-460" y="270" as="targetPoint" />
          </mxGeometry>
        </mxCell>
        <mxCell id="IG7zMW9V_TZmOPMzyRXg-22" value="" style="endArrow=none;dashed=1;html=1;rounded=0;fontFamily=Helvetica;fontSize=24;fontColor=default;exitX=1;exitY=0.5;exitDx=0;exitDy=0;" parent="1" source="IG7zMW9V_TZmOPMzyRXg-3" target="IG7zMW9V_TZmOPMzyRXg-23" edge="1">
          <mxGeometry width="50" height="50" relative="1" as="geometry">
            <mxPoint x="-239.9999999999999" y="370" as="sourcePoint" />
            <mxPoint x="-59.75999999999999" y="345" as="targetPoint" />
          </mxGeometry>
        </mxCell>
        <mxCell id="IG7zMW9V_TZmOPMzyRXg-23" value="" style="strokeWidth=2;html=1;shape=mxgraph.flowchart.annotation_1;align=left;pointerEvents=1;verticalAlign=middle;fontFamily=Helvetica;fontSize=24;fontColor=default;fillColor=none;gradientColor=none;" parent="1" vertex="1">
          <mxGeometry x="-190" y="197.5" width="20" height="85" as="geometry" />
        </mxCell>
        <mxCell id="IG7zMW9V_TZmOPMzyRXg-24" value="&lt;span style=&quot;font-weight: normal;&quot;&gt;Вычисление определителя второго порядка&lt;br&gt;&lt;/span&gt;" style="text;strokeColor=none;fillColor=none;html=1;fontSize=16;fontStyle=1;verticalAlign=middle;align=center;fontFamily=Helvetica;fontColor=default;" parent="1" vertex="1">
          <mxGeometry x="-60" y="220" width="100" height="40" as="geometry" />
        </mxCell>
        <mxCell id="IG7zMW9V_TZmOPMzyRXg-25" value="" style="shape=process;whiteSpace=wrap;html=1;backgroundOutline=1;align=center;verticalAlign=middle;fontFamily=Helvetica;fontSize=24;fontColor=default;fillColor=none;gradientColor=none;" parent="1" vertex="1">
          <mxGeometry x="-466.75" y="340" width="209.75" height="100" as="geometry" />
        </mxCell>
        <mxCell id="IG7zMW9V_TZmOPMzyRXg-27" value="" style="endArrow=none;dashed=1;html=1;rounded=0;fontFamily=Helvetica;fontSize=24;fontColor=default;exitX=1;exitY=0.5;exitDx=0;exitDy=0;" parent="1" source="IG7zMW9V_TZmOPMzyRXg-25" target="IG7zMW9V_TZmOPMzyRXg-28" edge="1">
          <mxGeometry width="50" height="50" relative="1" as="geometry">
            <mxPoint x="-239.9999999999999" y="520" as="sourcePoint" />
            <mxPoint x="-59.75999999999999" y="495" as="targetPoint" />
          </mxGeometry>
        </mxCell>
        <mxCell id="IG7zMW9V_TZmOPMzyRXg-28" value="" style="strokeWidth=2;html=1;shape=mxgraph.flowchart.annotation_1;align=left;pointerEvents=1;verticalAlign=middle;fontFamily=Helvetica;fontSize=24;fontColor=default;fillColor=none;gradientColor=none;" parent="1" vertex="1">
          <mxGeometry x="-190" y="347.5" width="20" height="85" as="geometry" />
        </mxCell>
        <mxCell id="IG7zMW9V_TZmOPMzyRXg-29" value="&lt;span style=&quot;font-weight: normal;&quot;&gt;Вычисление определителя второго порядка&lt;br&gt;&lt;/span&gt;" style="text;strokeColor=none;fillColor=none;html=1;fontSize=16;fontStyle=1;verticalAlign=middle;align=center;fontFamily=Helvetica;fontColor=default;" parent="1" vertex="1">
          <mxGeometry x="-60" y="370" width="100" height="40" as="geometry" />
        </mxCell>
        <mxCell id="IG7zMW9V_TZmOPMzyRXg-35" value="" style="shape=process;whiteSpace=wrap;html=1;backgroundOutline=1;align=center;verticalAlign=middle;fontFamily=Helvetica;fontSize=24;fontColor=default;fillColor=none;gradientColor=none;" parent="1" vertex="1">
          <mxGeometry x="-466.75" y="487" width="209.75" height="100" as="geometry" />
        </mxCell>
        <mxCell id="IG7zMW9V_TZmOPMzyRXg-36" value="" style="endArrow=none;html=1;rounded=0;fontFamily=Helvetica;fontSize=16;fontColor=default;entryX=0.499;entryY=1.023;entryDx=0;entryDy=0;exitX=0.5;exitY=0;exitDx=0;exitDy=0;entryPerimeter=0;" parent="1" source="IG7zMW9V_TZmOPMzyRXg-35" target="IG7zMW9V_TZmOPMzyRXg-25" edge="1">
          <mxGeometry width="50" height="50" relative="1" as="geometry">
            <mxPoint x="-510" y="617" as="sourcePoint" />
            <mxPoint x="-363" y="440" as="targetPoint" />
          </mxGeometry>
        </mxCell>
        <mxCell id="IG7zMW9V_TZmOPMzyRXg-37" value="" style="endArrow=none;dashed=1;html=1;rounded=0;fontFamily=Helvetica;fontSize=24;fontColor=default;exitX=1;exitY=0.5;exitDx=0;exitDy=0;" parent="1" source="IG7zMW9V_TZmOPMzyRXg-35" target="IG7zMW9V_TZmOPMzyRXg-38" edge="1">
          <mxGeometry width="50" height="50" relative="1" as="geometry">
            <mxPoint x="-239.9999999999999" y="667" as="sourcePoint" />
            <mxPoint x="-59.75999999999999" y="642" as="targetPoint" />
          </mxGeometry>
        </mxCell>
        <mxCell id="IG7zMW9V_TZmOPMzyRXg-38" value="" style="strokeWidth=2;html=1;shape=mxgraph.flowchart.annotation_1;align=left;pointerEvents=1;verticalAlign=middle;fontFamily=Helvetica;fontSize=24;fontColor=default;fillColor=none;gradientColor=none;" parent="1" vertex="1">
          <mxGeometry x="-190" y="494.5" width="20" height="85" as="geometry" />
        </mxCell>
        <mxCell id="IG7zMW9V_TZmOPMzyRXg-39" value="&lt;span style=&quot;font-weight: normal;&quot;&gt;Вычисление определителя второго порядка&lt;br&gt;&lt;/span&gt;" style="text;strokeColor=none;fillColor=none;html=1;fontSize=16;fontStyle=1;verticalAlign=middle;align=center;fontFamily=Helvetica;fontColor=default;" parent="1" vertex="1">
          <mxGeometry x="-60" y="517" width="100" height="40" as="geometry" />
        </mxCell>
        <mxCell id="IG7zMW9V_TZmOPMzyRXg-40" value="&lt;span style=&quot;font-weight: 400;&quot;&gt;Delta()&lt;br&gt;&lt;/span&gt;" style="text;strokeColor=none;fillColor=none;html=1;fontSize=16;fontStyle=1;verticalAlign=middle;align=center;fontFamily=Helvetica;fontColor=default;" parent="1" vertex="1">
          <mxGeometry x="-413" y="220" width="100" height="40" as="geometry" />
        </mxCell>
        <mxCell id="IG7zMW9V_TZmOPMzyRXg-41" value="&lt;span style=&quot;font-weight: 400;&quot;&gt;Res_Delta_X()&lt;br&gt;&lt;/span&gt;" style="text;strokeColor=none;fillColor=none;html=1;fontSize=16;fontStyle=1;verticalAlign=middle;align=center;fontFamily=Helvetica;fontColor=default;" parent="1" vertex="1">
          <mxGeometry x="-413" y="370" width="100" height="40" as="geometry" />
        </mxCell>
        <mxCell id="IG7zMW9V_TZmOPMzyRXg-42" value="&lt;span style=&quot;font-weight: 400;&quot;&gt;Res_Delta_Y()&lt;br&gt;&lt;/span&gt;" style="text;strokeColor=none;fillColor=none;html=1;fontSize=16;fontStyle=1;verticalAlign=middle;align=center;fontFamily=Helvetica;fontColor=default;" parent="1" vertex="1">
          <mxGeometry x="-413" y="517" width="100" height="40" as="geometry" />
        </mxCell>
        <mxCell id="-O4M7dscSAYWwoBC6ZsX-3" value="" style="shape=process;whiteSpace=wrap;html=1;backgroundOutline=1;align=center;verticalAlign=middle;fontFamily=Helvetica;fontSize=24;fontColor=default;fillColor=none;gradientColor=none;" parent="1" vertex="1">
          <mxGeometry x="-466.75" y="632" width="209.75" height="100" as="geometry" />
        </mxCell>
        <mxCell id="-O4M7dscSAYWwoBC6ZsX-4" value="" style="endArrow=none;html=1;rounded=0;fontFamily=Helvetica;fontSize=16;fontColor=default;entryX=0.5;entryY=1;entryDx=0;entryDy=0;exitX=0.5;exitY=0;exitDx=0;exitDy=0;" parent="1" source="-O4M7dscSAYWwoBC6ZsX-3" target="IG7zMW9V_TZmOPMzyRXg-35" edge="1">
          <mxGeometry width="50" height="50" relative="1" as="geometry">
            <mxPoint x="-510" y="762" as="sourcePoint" />
            <mxPoint x="-362" y="587" as="targetPoint" />
          </mxGeometry>
        </mxCell>
        <mxCell id="-O4M7dscSAYWwoBC6ZsX-5" value="" style="endArrow=none;dashed=1;html=1;rounded=0;fontFamily=Helvetica;fontSize=24;fontColor=default;exitX=1;exitY=0.5;exitDx=0;exitDy=0;" parent="1" source="-O4M7dscSAYWwoBC6ZsX-3" target="-O4M7dscSAYWwoBC6ZsX-6" edge="1">
          <mxGeometry width="50" height="50" relative="1" as="geometry">
            <mxPoint x="-239.9999999999999" y="812" as="sourcePoint" />
            <mxPoint x="-59.75999999999999" y="787" as="targetPoint" />
          </mxGeometry>
        </mxCell>
        <mxCell id="-O4M7dscSAYWwoBC6ZsX-6" value="" style="strokeWidth=2;html=1;shape=mxgraph.flowchart.annotation_1;align=left;pointerEvents=1;verticalAlign=middle;fontFamily=Helvetica;fontSize=24;fontColor=default;fillColor=none;gradientColor=none;" parent="1" vertex="1">
          <mxGeometry x="-190" y="639.5" width="20" height="85" as="geometry" />
        </mxCell>
        <mxCell id="-O4M7dscSAYWwoBC6ZsX-7" value="&lt;span style=&quot;font-weight: normal;&quot;&gt;Вычисление координаты X&lt;br&gt;&lt;/span&gt;" style="text;strokeColor=none;fillColor=none;html=1;fontSize=16;fontStyle=1;verticalAlign=middle;align=center;fontFamily=Helvetica;fontColor=default;" parent="1" vertex="1">
          <mxGeometry x="-60" y="662" width="100" height="40" as="geometry" />
        </mxCell>
        <mxCell id="-O4M7dscSAYWwoBC6ZsX-8" value="&lt;span style=&quot;font-weight: 400;&quot;&gt;res_x&lt;br&gt;&lt;/span&gt;" style="text;strokeColor=none;fillColor=none;html=1;fontSize=16;fontStyle=1;verticalAlign=middle;align=center;fontFamily=Helvetica;fontColor=default;" parent="1" vertex="1">
          <mxGeometry x="-413" y="662" width="100" height="40" as="geometry" />
        </mxCell>
        <mxCell id="-O4M7dscSAYWwoBC6ZsX-9" value="" style="shape=process;whiteSpace=wrap;html=1;backgroundOutline=1;align=center;verticalAlign=middle;fontFamily=Helvetica;fontSize=24;fontColor=default;fillColor=none;gradientColor=none;" parent="1" vertex="1">
          <mxGeometry x="-466.75" y="777" width="209.75" height="100" as="geometry" />
        </mxCell>
        <mxCell id="-O4M7dscSAYWwoBC6ZsX-10" value="" style="endArrow=none;html=1;rounded=0;fontFamily=Helvetica;fontSize=16;fontColor=default;entryX=0.5;entryY=1;entryDx=0;entryDy=0;exitX=0.5;exitY=0;exitDx=0;exitDy=0;" parent="1" source="-O4M7dscSAYWwoBC6ZsX-9" target="-O4M7dscSAYWwoBC6ZsX-3" edge="1">
          <mxGeometry width="50" height="50" relative="1" as="geometry">
            <mxPoint x="-510" y="907" as="sourcePoint" />
            <mxPoint x="-362" y="732" as="targetPoint" />
          </mxGeometry>
        </mxCell>
        <mxCell id="-O4M7dscSAYWwoBC6ZsX-11" value="" style="endArrow=none;dashed=1;html=1;rounded=0;fontFamily=Helvetica;fontSize=24;fontColor=default;exitX=1;exitY=0.5;exitDx=0;exitDy=0;" parent="1" source="-O4M7dscSAYWwoBC6ZsX-9" target="-O4M7dscSAYWwoBC6ZsX-12" edge="1">
          <mxGeometry width="50" height="50" relative="1" as="geometry">
            <mxPoint x="-239.9999999999999" y="957" as="sourcePoint" />
            <mxPoint x="-59.75999999999999" y="932" as="targetPoint" />
          </mxGeometry>
        </mxCell>
        <mxCell id="-O4M7dscSAYWwoBC6ZsX-12" value="" style="strokeWidth=2;html=1;shape=mxgraph.flowchart.annotation_1;align=left;pointerEvents=1;verticalAlign=middle;fontFamily=Helvetica;fontSize=24;fontColor=default;fillColor=none;gradientColor=none;" parent="1" vertex="1">
          <mxGeometry x="-190" y="784.5" width="20" height="85" as="geometry" />
        </mxCell>
        <mxCell id="-O4M7dscSAYWwoBC6ZsX-13" value="&lt;span style=&quot;font-weight: normal;&quot;&gt;Вычисление координаты Y&lt;br&gt;Входные данные: delta_y, delta&lt;br&gt;Выходные данные: double res_y&lt;br&gt;&lt;/span&gt;" style="text;strokeColor=none;fillColor=none;html=1;fontSize=16;fontStyle=1;verticalAlign=middle;align=center;fontFamily=Helvetica;fontColor=default;" parent="1" vertex="1">
          <mxGeometry x="-60" y="807" width="100" height="40" as="geometry" />
        </mxCell>
        <mxCell id="-O4M7dscSAYWwoBC6ZsX-14" value="&lt;span style=&quot;font-weight: 400;&quot;&gt;res_y&lt;br&gt;&lt;/span&gt;" style="text;strokeColor=none;fillColor=none;html=1;fontSize=16;fontStyle=1;verticalAlign=middle;align=center;fontFamily=Helvetica;fontColor=default;" parent="1" vertex="1">
          <mxGeometry x="-413" y="807" width="100" height="40" as="geometry" />
        </mxCell>
        <mxCell id="-O4M7dscSAYWwoBC6ZsX-15" value="&lt;span style=&quot;font-weight: 400;&quot;&gt;&lt;font style=&quot;font-size: 20px;&quot;&gt;Начало&lt;/font&gt;&lt;br&gt;&lt;/span&gt;" style="text;strokeColor=none;fillColor=none;html=1;fontSize=16;fontStyle=1;verticalAlign=middle;align=center;fontFamily=Helvetica;fontColor=default;" parent="1" vertex="1">
          <mxGeometry x="-419.37" y="63.91" width="115" height="42.18" as="geometry" />
        </mxCell>
        <mxCell id="-O4M7dscSAYWwoBC6ZsX-16" value="" style="endArrow=none;html=1;rounded=0;fontFamily=Helvetica;fontSize=16;fontColor=default;entryX=0.5;entryY=1;entryDx=0;entryDy=0;exitX=0.5;exitY=0;exitDx=0;exitDy=0;" parent="1" source="-O4M7dscSAYWwoBC6ZsX-17" target="-O4M7dscSAYWwoBC6ZsX-9" edge="1">
          <mxGeometry width="50" height="50" relative="1" as="geometry">
            <mxPoint x="-450" y="770" as="sourcePoint" />
            <mxPoint x="-400" y="720" as="targetPoint" />
          </mxGeometry>
        </mxCell>
        <mxCell id="-O4M7dscSAYWwoBC6ZsX-17" value="" style="rounded=1;whiteSpace=wrap;html=1;align=center;verticalAlign=middle;fontFamily=Helvetica;fontSize=16;fontColor=default;fillColor=none;gradientColor=none;arcSize=50;" parent="1" vertex="1">
          <mxGeometry x="-468.37" y="920" width="213" height="113.12" as="geometry" />
        </mxCell>
        <mxCell id="-O4M7dscSAYWwoBC6ZsX-18" value="&lt;span style=&quot;font-weight: normal;&quot;&gt;&lt;font style=&quot;font-size: 20px;&quot;&gt;Конец&lt;br&gt;&lt;/font&gt;&lt;/span&gt;" style="text;strokeColor=none;fillColor=none;html=1;fontSize=16;fontStyle=1;verticalAlign=middle;align=center;fontFamily=Helvetica;fontColor=default;" parent="1" vertex="1">
          <mxGeometry x="-411.87" y="956.56" width="100" height="40" as="geometry" />
        </mxCell>
      </root>
    </mxGraphModel>
  </diagram>
  <diagram name="Страница — 3" id="569aNQI8Tanr1TElmqWs">
    <mxGraphModel dx="1965" dy="1091" grid="1" gridSize="10" guides="1" tooltips="1" connect="1" arrows="1" fold="1" page="1" pageScale="1" pageWidth="827" pageHeight="1169" math="0" shadow="0">
      <root>
        <mxCell id="0" />
        <mxCell id="1" parent="0" />
        <mxCell id="JByD3nCNMzfMSLDcumtZ-1" value="&lt;font style=&quot;font-size: 16px;&quot;&gt;Начало&lt;br&gt;Res_Delta_X&lt;/font&gt;" style="rounded=1;whiteSpace=wrap;html=1;align=center;verticalAlign=middle;fontFamily=Helvetica;fontSize=16;fontColor=default;fillColor=none;gradientColor=none;arcSize=50;" parent="1" vertex="1">
          <mxGeometry x="170" y="120" width="120" height="60" as="geometry" />
        </mxCell>
        <mxCell id="JByD3nCNMzfMSLDcumtZ-4" value="Начало&lt;br&gt;Delta()" style="rounded=1;whiteSpace=wrap;html=1;align=center;verticalAlign=middle;fillColor=none;gradientColor=none;arcSize=50;fontSize=16;" parent="1" vertex="1">
          <mxGeometry x="690" y="120" width="120" height="60" as="geometry" />
        </mxCell>
        <mxCell id="JByD3nCNMzfMSLDcumtZ-5" value="Начало&lt;br&gt;Res_Delta_Y" style="rounded=1;whiteSpace=wrap;html=1;align=center;verticalAlign=middle;fontFamily=Helvetica;fontSize=16;fontColor=default;fillColor=none;gradientColor=none;arcSize=50;" parent="1" vertex="1">
          <mxGeometry x="1310" y="120" width="120" height="60" as="geometry" />
        </mxCell>
        <mxCell id="JByD3nCNMzfMSLDcumtZ-7" value="" style="endArrow=none;html=1;rounded=0;fontFamily=Helvetica;fontSize=16;fontColor=default;entryX=0.5;entryY=1;entryDx=0;entryDy=0;exitX=0.5;exitY=0;exitDx=0;exitDy=0;" parent="1" source="JByD3nCNMzfMSLDcumtZ-8" target="JByD3nCNMzfMSLDcumtZ-1" edge="1">
          <mxGeometry width="50" height="50" relative="1" as="geometry">
            <mxPoint x="510" y="690" as="sourcePoint" />
            <mxPoint x="560" y="640" as="targetPoint" />
          </mxGeometry>
        </mxCell>
        <mxCell id="JByD3nCNMzfMSLDcumtZ-8" value="(c1 * b2) - (c2 * b1)" style="rounded=0;whiteSpace=wrap;html=1;align=center;verticalAlign=middle;fontFamily=Helvetica;fontSize=16;fontColor=default;fillColor=none;gradientColor=none;" parent="1" vertex="1">
          <mxGeometry x="160" y="210" width="140" height="60" as="geometry" />
        </mxCell>
        <mxCell id="JByD3nCNMzfMSLDcumtZ-9" value="" style="endArrow=none;html=1;rounded=0;fontFamily=Helvetica;fontSize=16;fontColor=default;exitX=0.5;exitY=0;exitDx=0;exitDy=0;entryX=0.5;entryY=1;entryDx=0;entryDy=0;" parent="1" source="JByD3nCNMzfMSLDcumtZ-14" target="JByD3nCNMzfMSLDcumtZ-4" edge="1">
          <mxGeometry width="50" height="50" relative="1" as="geometry">
            <mxPoint x="750" y="210" as="sourcePoint" />
            <mxPoint x="756" y="190" as="targetPoint" />
          </mxGeometry>
        </mxCell>
        <mxCell id="JByD3nCNMzfMSLDcumtZ-11" value="" style="endArrow=none;html=1;rounded=0;fontFamily=Helvetica;fontSize=16;fontColor=default;entryX=0.5;entryY=1;entryDx=0;entryDy=0;exitX=0.5;exitY=0;exitDx=0;exitDy=0;" parent="1" source="JByD3nCNMzfMSLDcumtZ-13" target="JByD3nCNMzfMSLDcumtZ-5" edge="1">
          <mxGeometry width="50" height="50" relative="1" as="geometry">
            <mxPoint x="1370" y="210" as="sourcePoint" />
            <mxPoint x="1370" y="195" as="targetPoint" />
          </mxGeometry>
        </mxCell>
        <mxCell id="JByD3nCNMzfMSLDcumtZ-13" value="(a1 * c2) - (a2 * c1)" style="rounded=0;whiteSpace=wrap;html=1;align=center;verticalAlign=middle;fontFamily=Helvetica;fontSize=16;fontColor=default;fillColor=none;gradientColor=none;" parent="1" vertex="1">
          <mxGeometry x="1300" y="210" width="140" height="60" as="geometry" />
        </mxCell>
        <mxCell id="JByD3nCNMzfMSLDcumtZ-14" value="(a1 * b2) - (a2 * b1)" style="rounded=0;whiteSpace=wrap;html=1;align=center;verticalAlign=middle;fontFamily=Helvetica;fontSize=16;fontColor=default;fillColor=none;gradientColor=none;" parent="1" vertex="1">
          <mxGeometry x="680" y="210" width="140" height="60" as="geometry" />
        </mxCell>
        <mxCell id="ppO2m8GWplqeA0fYNwq0-2" value="" style="endArrow=none;dashed=1;html=1;rounded=0;fontFamily=Helvetica;fontSize=16;fontColor=default;exitX=1;exitY=0.5;exitDx=0;exitDy=0;" parent="1" source="JByD3nCNMzfMSLDcumtZ-1" target="ppO2m8GWplqeA0fYNwq0-3" edge="1">
          <mxGeometry width="50" height="50" relative="1" as="geometry">
            <mxPoint x="300" y="150" as="sourcePoint" />
            <mxPoint x="340" y="150" as="targetPoint" />
          </mxGeometry>
        </mxCell>
        <mxCell id="ppO2m8GWplqeA0fYNwq0-3" value="&amp;nbsp; &amp;nbsp;Вычисление определителя второго порядка&lt;br&gt;&amp;nbsp; &amp;nbsp;Входные параметры: c1, c2, b1, b2&lt;br style=&quot;border-color: var(--border-color); text-align: center;&quot;&gt;&lt;span style=&quot;text-align: center;&quot;&gt;&amp;nbsp; &amp;nbsp;Выходные параметры: double delta_x&lt;/span&gt;" style="strokeWidth=2;html=1;shape=mxgraph.flowchart.annotation_1;align=left;pointerEvents=1;verticalAlign=middle;fontFamily=Helvetica;fontSize=16;fontColor=default;fillColor=none;gradientColor=none;" parent="1" vertex="1">
          <mxGeometry x="315" y="120" width="25" height="60" as="geometry" />
        </mxCell>
        <mxCell id="-kBLib8XsM5FMUQgzwyr-1" value="" style="endArrow=none;dashed=1;html=1;rounded=0;fontFamily=Helvetica;fontSize=16;fontColor=default;exitX=1;exitY=0.5;exitDx=0;exitDy=0;" parent="1" source="JByD3nCNMzfMSLDcumtZ-5" target="-kBLib8XsM5FMUQgzwyr-2" edge="1">
          <mxGeometry width="50" height="50" relative="1" as="geometry">
            <mxPoint x="1440" y="150" as="sourcePoint" />
            <mxPoint x="1490" y="150" as="targetPoint" />
          </mxGeometry>
        </mxCell>
        <mxCell id="-kBLib8XsM5FMUQgzwyr-2" value="&amp;nbsp; &amp;nbsp;Вычисление определителя второго порядка&lt;br style=&quot;border-color: var(--border-color); text-align: center;&quot;&gt;&lt;span style=&quot;text-align: center;&quot;&gt;&amp;nbsp; &amp;nbsp;Входные данные: a1, a2, c1, c2&lt;/span&gt;&lt;br style=&quot;border-color: var(--border-color); text-align: center;&quot;&gt;&lt;span style=&quot;text-align: center;&quot;&gt;&amp;nbsp; &amp;nbsp;Выходные данные: double delta_y&lt;/span&gt;" style="strokeWidth=2;html=1;shape=mxgraph.flowchart.annotation_1;align=left;pointerEvents=1;verticalAlign=middle;fontFamily=Helvetica;fontSize=16;fontColor=default;fillColor=none;gradientColor=none;" parent="1" vertex="1">
          <mxGeometry x="1465" y="120" width="25" height="60" as="geometry" />
        </mxCell>
        <mxCell id="_0iIQ51jGWU1YBUbTsYF-1" value="" style="endArrow=none;dashed=1;html=1;rounded=0;fontFamily=Helvetica;fontSize=16;fontColor=default;exitX=1;exitY=0.5;exitDx=0;exitDy=0;" parent="1" source="JByD3nCNMzfMSLDcumtZ-4" target="_0iIQ51jGWU1YBUbTsYF-2" edge="1">
          <mxGeometry width="50" height="50" relative="1" as="geometry">
            <mxPoint x="810" y="150" as="sourcePoint" />
            <mxPoint x="860" y="150" as="targetPoint" />
          </mxGeometry>
        </mxCell>
        <mxCell id="_0iIQ51jGWU1YBUbTsYF-2" value="&amp;nbsp; &amp;nbsp;Вычисление определителя второго порядка&lt;br&gt;&amp;nbsp; &amp;nbsp;Входные параметры: a1, a2, b1, b2&lt;br style=&quot;border-color: var(--border-color); text-align: center;&quot;&gt;&lt;span style=&quot;text-align: center;&quot;&gt;&amp;nbsp; &amp;nbsp;Выходные параметры: double delta_x&lt;/span&gt;" style="strokeWidth=2;html=1;shape=mxgraph.flowchart.annotation_1;align=left;pointerEvents=1;verticalAlign=middle;fontFamily=Helvetica;fontSize=16;fontColor=default;fillColor=none;gradientColor=none;" parent="1" vertex="1">
          <mxGeometry x="835" y="120" width="25" height="60" as="geometry" />
        </mxCell>
        <mxCell id="FEOhGibvp6qKB15Zhyrx-1" value="" style="endArrow=none;html=1;rounded=0;fontFamily=Helvetica;fontSize=16;fontColor=default;entryX=0.5;entryY=1;entryDx=0;entryDy=0;exitX=0.5;exitY=0;exitDx=0;exitDy=0;" parent="1" source="FEOhGibvp6qKB15Zhyrx-2" target="JByD3nCNMzfMSLDcumtZ-14" edge="1">
          <mxGeometry width="50" height="50" relative="1" as="geometry">
            <mxPoint x="880" y="440" as="sourcePoint" />
            <mxPoint x="930" y="390" as="targetPoint" />
          </mxGeometry>
        </mxCell>
        <mxCell id="FEOhGibvp6qKB15Zhyrx-2" value="Конец&lt;br&gt;Delta()" style="rounded=1;whiteSpace=wrap;html=1;align=center;verticalAlign=middle;fontFamily=Helvetica;fontSize=16;fontColor=default;fillColor=none;gradientColor=none;arcSize=50;" parent="1" vertex="1">
          <mxGeometry x="690" y="300" width="120" height="60" as="geometry" />
        </mxCell>
        <mxCell id="FEOhGibvp6qKB15Zhyrx-3" value="" style="endArrow=none;html=1;rounded=0;fontFamily=Helvetica;fontSize=16;fontColor=default;exitX=0.5;exitY=0;exitDx=0;exitDy=0;entryX=0.5;entryY=1;entryDx=0;entryDy=0;" parent="1" source="FEOhGibvp6qKB15Zhyrx-4" target="JByD3nCNMzfMSLDcumtZ-13" edge="1">
          <mxGeometry width="50" height="50" relative="1" as="geometry">
            <mxPoint x="1500" y="430" as="sourcePoint" />
            <mxPoint x="1520" y="330" as="targetPoint" />
          </mxGeometry>
        </mxCell>
        <mxCell id="FEOhGibvp6qKB15Zhyrx-4" value="Конец&lt;br&gt;Res_Delta_Y()" style="rounded=1;whiteSpace=wrap;html=1;align=center;verticalAlign=middle;fontFamily=Helvetica;fontSize=16;fontColor=default;fillColor=none;gradientColor=none;arcSize=50;" parent="1" vertex="1">
          <mxGeometry x="1310" y="300" width="120" height="60" as="geometry" />
        </mxCell>
        <mxCell id="FEOhGibvp6qKB15Zhyrx-5" value="" style="endArrow=none;html=1;rounded=0;fontFamily=Helvetica;fontSize=16;fontColor=default;exitX=0.5;exitY=0;exitDx=0;exitDy=0;entryX=0.5;entryY=1;entryDx=0;entryDy=0;" parent="1" source="FEOhGibvp6qKB15Zhyrx-6" target="JByD3nCNMzfMSLDcumtZ-8" edge="1">
          <mxGeometry width="50" height="50" relative="1" as="geometry">
            <mxPoint x="360" y="440" as="sourcePoint" />
            <mxPoint x="310" y="330" as="targetPoint" />
          </mxGeometry>
        </mxCell>
        <mxCell id="FEOhGibvp6qKB15Zhyrx-6" value="Конец&lt;br&gt;Res_Delta_X()" style="rounded=1;whiteSpace=wrap;html=1;align=center;verticalAlign=middle;fontFamily=Helvetica;fontSize=16;fontColor=default;fillColor=none;gradientColor=none;arcSize=50;" parent="1" vertex="1">
          <mxGeometry x="170" y="300" width="120" height="60" as="geometry" />
        </mxCell>
        <mxCell id="FEOhGibvp6qKB15Zhyrx-7" value="Начало&lt;br&gt;res_x" style="rounded=1;whiteSpace=wrap;html=1;align=center;verticalAlign=middle;fontFamily=Helvetica;fontSize=16;fontColor=default;fillColor=none;gradientColor=none;arcSize=50;" parent="1" vertex="1">
          <mxGeometry x="260" y="470" width="120" height="60" as="geometry" />
        </mxCell>
        <mxCell id="FEOhGibvp6qKB15Zhyrx-8" value="delta_x / delta" style="rounded=0;whiteSpace=wrap;html=1;align=center;verticalAlign=middle;fontFamily=Helvetica;fontSize=16;fontColor=default;fillColor=none;gradientColor=none;" parent="1" vertex="1">
          <mxGeometry x="260" y="770" width="120" height="60" as="geometry" />
        </mxCell>
        <mxCell id="FEOhGibvp6qKB15Zhyrx-10" value="Конец&lt;br&gt;res_x" style="rounded=1;whiteSpace=wrap;html=1;align=center;verticalAlign=middle;fontFamily=Helvetica;fontSize=16;fontColor=default;fillColor=none;gradientColor=none;arcSize=50;" parent="1" vertex="1">
          <mxGeometry x="260" y="870" width="120" height="60" as="geometry" />
        </mxCell>
        <mxCell id="FEOhGibvp6qKB15Zhyrx-12" value="" style="endArrow=none;html=1;rounded=0;fontFamily=Helvetica;fontSize=16;fontColor=default;entryX=0.5;entryY=0;entryDx=0;entryDy=0;exitX=0.5;exitY=1;exitDx=0;exitDy=0;" parent="1" source="FEOhGibvp6qKB15Zhyrx-8" target="FEOhGibvp6qKB15Zhyrx-10" edge="1">
          <mxGeometry width="50" height="50" relative="1" as="geometry">
            <mxPoint x="550" y="815" as="sourcePoint" />
            <mxPoint x="800" y="815" as="targetPoint" />
          </mxGeometry>
        </mxCell>
        <mxCell id="FEOhGibvp6qKB15Zhyrx-13" value="Начало&lt;br&gt;res_y" style="rounded=1;whiteSpace=wrap;html=1;align=center;verticalAlign=middle;fontFamily=Helvetica;fontSize=16;fontColor=default;fillColor=none;gradientColor=none;arcSize=50;" parent="1" vertex="1">
          <mxGeometry x="835" y="470" width="120" height="60" as="geometry" />
        </mxCell>
        <mxCell id="FEOhGibvp6qKB15Zhyrx-14" value="delta_y / delta" style="rounded=0;whiteSpace=wrap;html=1;align=center;verticalAlign=middle;fontFamily=Helvetica;fontSize=16;fontColor=default;fillColor=none;gradientColor=none;" parent="1" vertex="1">
          <mxGeometry x="835" y="775" width="120" height="60" as="geometry" />
        </mxCell>
        <mxCell id="FEOhGibvp6qKB15Zhyrx-15" value="Конец&lt;br&gt;res_y" style="rounded=1;whiteSpace=wrap;html=1;align=center;verticalAlign=middle;fontFamily=Helvetica;fontSize=16;fontColor=default;fillColor=none;gradientColor=none;arcSize=50;" parent="1" vertex="1">
          <mxGeometry x="835" y="870" width="120" height="60" as="geometry" />
        </mxCell>
        <mxCell id="FEOhGibvp6qKB15Zhyrx-17" value="" style="endArrow=none;html=1;rounded=0;fontFamily=Helvetica;fontSize=16;fontColor=default;entryX=0.5;entryY=0;entryDx=0;entryDy=0;exitX=0.5;exitY=1;exitDx=0;exitDy=0;" parent="1" source="FEOhGibvp6qKB15Zhyrx-14" target="FEOhGibvp6qKB15Zhyrx-15" edge="1">
          <mxGeometry width="50" height="50" relative="1" as="geometry">
            <mxPoint x="1125" y="830" as="sourcePoint" />
            <mxPoint x="1375" y="830" as="targetPoint" />
          </mxGeometry>
        </mxCell>
        <mxCell id="FEOhGibvp6qKB15Zhyrx-18" value="" style="endArrow=none;dashed=1;html=1;rounded=0;fontFamily=Helvetica;fontSize=16;fontColor=default;exitX=1;exitY=0.5;exitDx=0;exitDy=0;" parent="1" source="JByD3nCNMzfMSLDcumtZ-8" target="FEOhGibvp6qKB15Zhyrx-19" edge="1">
          <mxGeometry width="50" height="50" relative="1" as="geometry">
            <mxPoint x="400" y="310" as="sourcePoint" />
            <mxPoint x="450" y="230" as="targetPoint" />
          </mxGeometry>
        </mxCell>
        <mxCell id="FEOhGibvp6qKB15Zhyrx-19" value="&amp;nbsp; &amp;nbsp;Вычисление определителя второго порядка" style="strokeWidth=2;html=1;shape=mxgraph.flowchart.annotation_1;align=left;pointerEvents=1;verticalAlign=middle;fontFamily=Helvetica;fontSize=16;fontColor=default;fillColor=none;gradientColor=none;" parent="1" vertex="1">
          <mxGeometry x="330" y="210" width="25" height="60" as="geometry" />
        </mxCell>
        <mxCell id="FEOhGibvp6qKB15Zhyrx-20" value="" style="endArrow=none;dashed=1;html=1;rounded=0;fontFamily=Helvetica;fontSize=16;fontColor=default;exitX=1;exitY=0.5;exitDx=0;exitDy=0;" parent="1" source="JByD3nCNMzfMSLDcumtZ-14" target="FEOhGibvp6qKB15Zhyrx-21" edge="1">
          <mxGeometry width="50" height="50" relative="1" as="geometry">
            <mxPoint x="840" y="230" as="sourcePoint" />
            <mxPoint x="990" y="220" as="targetPoint" />
          </mxGeometry>
        </mxCell>
        <mxCell id="FEOhGibvp6qKB15Zhyrx-21" value="&amp;nbsp; &amp;nbsp;Вычисление определителя второго порядка" style="strokeWidth=2;html=1;shape=mxgraph.flowchart.annotation_1;align=left;pointerEvents=1;verticalAlign=middle;fontFamily=Helvetica;fontSize=16;fontColor=default;fillColor=none;gradientColor=none;" parent="1" vertex="1">
          <mxGeometry x="850" y="210" width="25" height="60" as="geometry" />
        </mxCell>
        <mxCell id="FEOhGibvp6qKB15Zhyrx-22" value="" style="endArrow=none;dashed=1;html=1;rounded=0;fontFamily=Helvetica;fontSize=16;fontColor=default;exitX=1;exitY=0.5;exitDx=0;exitDy=0;" parent="1" source="JByD3nCNMzfMSLDcumtZ-13" target="FEOhGibvp6qKB15Zhyrx-23" edge="1">
          <mxGeometry width="50" height="50" relative="1" as="geometry">
            <mxPoint x="1510" y="240" as="sourcePoint" />
            <mxPoint x="1660" y="230" as="targetPoint" />
          </mxGeometry>
        </mxCell>
        <mxCell id="FEOhGibvp6qKB15Zhyrx-23" value="&amp;nbsp; &amp;nbsp;Вычисление определителя второго порядка" style="strokeWidth=2;html=1;shape=mxgraph.flowchart.annotation_1;align=left;pointerEvents=1;verticalAlign=middle;fontFamily=Helvetica;fontSize=16;fontColor=default;fillColor=none;gradientColor=none;" parent="1" vertex="1">
          <mxGeometry x="1470" y="210" width="25" height="60" as="geometry" />
        </mxCell>
        <mxCell id="FEOhGibvp6qKB15Zhyrx-25" value="Res_Delta_X" style="shape=process;whiteSpace=wrap;html=1;backgroundOutline=1;align=center;verticalAlign=middle;fontFamily=Helvetica;fontSize=16;fontColor=default;fillColor=none;gradientColor=none;" parent="1" vertex="1">
          <mxGeometry x="260" y="570" width="120" height="60" as="geometry" />
        </mxCell>
        <mxCell id="FEOhGibvp6qKB15Zhyrx-26" value="Delta()" style="shape=process;whiteSpace=wrap;html=1;backgroundOutline=1;align=center;verticalAlign=middle;fontFamily=Helvetica;fontSize=16;fontColor=default;fillColor=none;gradientColor=none;" parent="1" vertex="1">
          <mxGeometry x="260" y="670" width="120" height="60" as="geometry" />
        </mxCell>
        <mxCell id="FEOhGibvp6qKB15Zhyrx-27" value="" style="endArrow=none;html=1;rounded=0;fontFamily=Helvetica;fontSize=16;fontColor=default;entryX=0.5;entryY=1;entryDx=0;entryDy=0;" parent="1" source="FEOhGibvp6qKB15Zhyrx-25" target="FEOhGibvp6qKB15Zhyrx-7" edge="1">
          <mxGeometry width="50" height="50" relative="1" as="geometry">
            <mxPoint x="490" y="680" as="sourcePoint" />
            <mxPoint x="540" y="630" as="targetPoint" />
          </mxGeometry>
        </mxCell>
        <mxCell id="FEOhGibvp6qKB15Zhyrx-28" value="" style="endArrow=none;html=1;rounded=0;fontFamily=Helvetica;fontSize=16;fontColor=default;entryX=0.5;entryY=0;entryDx=0;entryDy=0;exitX=0.5;exitY=1;exitDx=0;exitDy=0;" parent="1" source="FEOhGibvp6qKB15Zhyrx-25" target="FEOhGibvp6qKB15Zhyrx-26" edge="1">
          <mxGeometry width="50" height="50" relative="1" as="geometry">
            <mxPoint x="430" y="585" as="sourcePoint" />
            <mxPoint x="480" y="535" as="targetPoint" />
          </mxGeometry>
        </mxCell>
        <mxCell id="FEOhGibvp6qKB15Zhyrx-30" value="" style="endArrow=none;html=1;rounded=0;fontFamily=Helvetica;fontSize=16;fontColor=default;entryX=0.5;entryY=0;entryDx=0;entryDy=0;exitX=0.5;exitY=1;exitDx=0;exitDy=0;" parent="1" source="FEOhGibvp6qKB15Zhyrx-26" target="FEOhGibvp6qKB15Zhyrx-8" edge="1">
          <mxGeometry width="50" height="50" relative="1" as="geometry">
            <mxPoint x="480" y="655" as="sourcePoint" />
            <mxPoint x="480" y="710" as="targetPoint" />
          </mxGeometry>
        </mxCell>
        <mxCell id="FEOhGibvp6qKB15Zhyrx-31" value="Res_Delta_Y" style="shape=process;whiteSpace=wrap;html=1;backgroundOutline=1;align=center;verticalAlign=middle;fontFamily=Helvetica;fontSize=16;fontColor=default;fillColor=none;gradientColor=none;" parent="1" vertex="1">
          <mxGeometry x="835" y="570" width="120" height="60" as="geometry" />
        </mxCell>
        <mxCell id="FEOhGibvp6qKB15Zhyrx-32" value="Delta()" style="shape=process;whiteSpace=wrap;html=1;backgroundOutline=1;align=center;verticalAlign=middle;fontFamily=Helvetica;fontSize=16;fontColor=default;fillColor=none;gradientColor=none;" parent="1" vertex="1">
          <mxGeometry x="835" y="670" width="120" height="60" as="geometry" />
        </mxCell>
        <mxCell id="FEOhGibvp6qKB15Zhyrx-33" value="" style="endArrow=none;html=1;rounded=0;fontFamily=Helvetica;fontSize=16;fontColor=default;entryX=0.5;entryY=0;entryDx=0;entryDy=0;exitX=0.5;exitY=1;exitDx=0;exitDy=0;" parent="1" source="FEOhGibvp6qKB15Zhyrx-31" target="FEOhGibvp6qKB15Zhyrx-32" edge="1">
          <mxGeometry width="50" height="50" relative="1" as="geometry">
            <mxPoint x="1305" y="605" as="sourcePoint" />
            <mxPoint x="1355" y="555" as="targetPoint" />
          </mxGeometry>
        </mxCell>
        <mxCell id="FEOhGibvp6qKB15Zhyrx-34" value="" style="endArrow=none;html=1;rounded=0;fontFamily=Helvetica;fontSize=16;fontColor=default;entryX=0.5;entryY=1;entryDx=0;entryDy=0;exitX=0.5;exitY=0;exitDx=0;exitDy=0;" parent="1" source="FEOhGibvp6qKB15Zhyrx-14" target="FEOhGibvp6qKB15Zhyrx-32" edge="1">
          <mxGeometry width="50" height="50" relative="1" as="geometry">
            <mxPoint x="635" y="530" as="sourcePoint" />
            <mxPoint x="685" y="480" as="targetPoint" />
          </mxGeometry>
        </mxCell>
        <mxCell id="FEOhGibvp6qKB15Zhyrx-35" value="" style="endArrow=none;html=1;rounded=0;fontFamily=Helvetica;fontSize=16;fontColor=default;entryX=0.5;entryY=1;entryDx=0;entryDy=0;exitX=0.5;exitY=0;exitDx=0;exitDy=0;" parent="1" source="FEOhGibvp6qKB15Zhyrx-31" target="FEOhGibvp6qKB15Zhyrx-13" edge="1">
          <mxGeometry width="50" height="50" relative="1" as="geometry">
            <mxPoint x="715" y="580" as="sourcePoint" />
            <mxPoint x="765" y="530" as="targetPoint" />
          </mxGeometry>
        </mxCell>
        <mxCell id="jtaZGn-zuC6d_EoR23D8-3" value="" style="endArrow=none;dashed=1;html=1;rounded=0;fontFamily=Helvetica;fontSize=16;fontColor=default;exitX=1;exitY=0.5;exitDx=0;exitDy=0;" parent="1" source="FEOhGibvp6qKB15Zhyrx-7" target="jtaZGn-zuC6d_EoR23D8-4" edge="1">
          <mxGeometry width="50" height="50" relative="1" as="geometry">
            <mxPoint x="420" y="500" as="sourcePoint" />
            <mxPoint x="570" y="490" as="targetPoint" />
          </mxGeometry>
        </mxCell>
        <mxCell id="jtaZGn-zuC6d_EoR23D8-4" value="&amp;nbsp; &amp;nbsp;Вычисление координаты X&lt;br style=&quot;border-color: var(--border-color); text-align: center;&quot;&gt;&lt;span style=&quot;text-align: center;&quot;&gt;&amp;nbsp; &amp;nbsp;Входные данные: delta_x, delta&lt;/span&gt;&lt;br style=&quot;border-color: var(--border-color); text-align: center;&quot;&gt;&lt;span style=&quot;text-align: center;&quot;&gt;&amp;nbsp; &amp;nbsp;Выходные данные: double res_x&lt;/span&gt;" style="strokeWidth=2;html=1;shape=mxgraph.flowchart.annotation_1;align=left;pointerEvents=1;verticalAlign=middle;fontFamily=Helvetica;fontSize=16;fontColor=default;fillColor=none;gradientColor=none;" parent="1" vertex="1">
          <mxGeometry x="413" y="470" width="25" height="60" as="geometry" />
        </mxCell>
        <mxCell id="jtaZGn-zuC6d_EoR23D8-5" value="" style="endArrow=none;dashed=1;html=1;rounded=0;fontFamily=Helvetica;fontSize=16;fontColor=default;exitX=1;exitY=0.5;exitDx=0;exitDy=0;" parent="1" source="FEOhGibvp6qKB15Zhyrx-13" target="jtaZGn-zuC6d_EoR23D8-6" edge="1">
          <mxGeometry width="50" height="50" relative="1" as="geometry">
            <mxPoint x="390" y="520" as="sourcePoint" />
            <mxPoint x="580" y="510" as="targetPoint" />
          </mxGeometry>
        </mxCell>
        <mxCell id="jtaZGn-zuC6d_EoR23D8-6" value="&amp;nbsp; &amp;nbsp;Вычисление координаты Y&lt;br style=&quot;border-color: var(--border-color); text-align: center;&quot;&gt;&lt;span style=&quot;text-align: center;&quot;&gt;&amp;nbsp; &amp;nbsp;Входные данные: delta_y, delta&lt;/span&gt;&lt;br style=&quot;border-color: var(--border-color); text-align: center;&quot;&gt;&lt;span style=&quot;text-align: center;&quot;&gt;&amp;nbsp; &amp;nbsp;Выходные данные: double res_y&lt;br&gt;&lt;/span&gt;" style="strokeWidth=2;html=1;shape=mxgraph.flowchart.annotation_1;align=left;pointerEvents=1;verticalAlign=middle;fontFamily=Helvetica;fontSize=16;fontColor=default;fillColor=none;gradientColor=none;" parent="1" vertex="1">
          <mxGeometry x="990" y="470" width="25" height="60" as="geometry" />
        </mxCell>
        <mxCell id="jtaZGn-zuC6d_EoR23D8-9" value="" style="endArrow=none;dashed=1;html=1;rounded=0;fontFamily=Helvetica;fontSize=16;fontColor=default;exitX=1;exitY=0.5;exitDx=0;exitDy=0;" parent="1" source="FEOhGibvp6qKB15Zhyrx-25" target="jtaZGn-zuC6d_EoR23D8-10" edge="1">
          <mxGeometry width="50" height="50" relative="1" as="geometry">
            <mxPoint x="383" y="600" as="sourcePoint" />
            <mxPoint x="533" y="590" as="targetPoint" />
          </mxGeometry>
        </mxCell>
        <mxCell id="jtaZGn-zuC6d_EoR23D8-10" value="&amp;nbsp; &amp;nbsp;Вычисление определителя второго порядка" style="strokeWidth=2;html=1;shape=mxgraph.flowchart.annotation_1;align=left;pointerEvents=1;verticalAlign=middle;fontFamily=Helvetica;fontSize=16;fontColor=default;fillColor=none;gradientColor=none;" parent="1" vertex="1">
          <mxGeometry x="413" y="570" width="25" height="60" as="geometry" />
        </mxCell>
        <mxCell id="jtaZGn-zuC6d_EoR23D8-11" value="" style="endArrow=none;dashed=1;html=1;rounded=0;fontFamily=Helvetica;fontSize=16;fontColor=default;exitX=1;exitY=0.5;exitDx=0;exitDy=0;" parent="1" source="FEOhGibvp6qKB15Zhyrx-31" target="jtaZGn-zuC6d_EoR23D8-12" edge="1">
          <mxGeometry width="50" height="50" relative="1" as="geometry">
            <mxPoint x="955" y="600" as="sourcePoint" />
            <mxPoint x="1105" y="590" as="targetPoint" />
          </mxGeometry>
        </mxCell>
        <mxCell id="jtaZGn-zuC6d_EoR23D8-12" value="&amp;nbsp; &amp;nbsp;Вычисление определителя второго порядка" style="strokeWidth=2;html=1;shape=mxgraph.flowchart.annotation_1;align=left;pointerEvents=1;verticalAlign=middle;fontFamily=Helvetica;fontSize=16;fontColor=default;fillColor=none;gradientColor=none;" parent="1" vertex="1">
          <mxGeometry x="985" y="570" width="25" height="60" as="geometry" />
        </mxCell>
        <mxCell id="jtaZGn-zuC6d_EoR23D8-13" value="" style="endArrow=none;dashed=1;html=1;rounded=0;fontFamily=Helvetica;fontSize=16;fontColor=default;exitX=1;exitY=0.5;exitDx=0;exitDy=0;" parent="1" source="FEOhGibvp6qKB15Zhyrx-26" target="jtaZGn-zuC6d_EoR23D8-14" edge="1">
          <mxGeometry width="50" height="50" relative="1" as="geometry">
            <mxPoint x="380" y="700" as="sourcePoint" />
            <mxPoint x="530" y="690" as="targetPoint" />
          </mxGeometry>
        </mxCell>
        <mxCell id="jtaZGn-zuC6d_EoR23D8-14" value="&amp;nbsp; &amp;nbsp;Вычисление определителя второго порядка" style="strokeWidth=2;html=1;shape=mxgraph.flowchart.annotation_1;align=left;pointerEvents=1;verticalAlign=middle;fontFamily=Helvetica;fontSize=16;fontColor=default;fillColor=none;gradientColor=none;" parent="1" vertex="1">
          <mxGeometry x="410" y="670" width="25" height="60" as="geometry" />
        </mxCell>
        <mxCell id="jtaZGn-zuC6d_EoR23D8-15" value="" style="endArrow=none;dashed=1;html=1;rounded=0;fontFamily=Helvetica;fontSize=16;fontColor=default;exitX=1;exitY=0.5;exitDx=0;exitDy=0;" parent="1" source="FEOhGibvp6qKB15Zhyrx-32" target="jtaZGn-zuC6d_EoR23D8-16" edge="1">
          <mxGeometry width="50" height="50" relative="1" as="geometry">
            <mxPoint x="955" y="700" as="sourcePoint" />
            <mxPoint x="1105" y="690" as="targetPoint" />
          </mxGeometry>
        </mxCell>
        <mxCell id="jtaZGn-zuC6d_EoR23D8-16" value="&amp;nbsp; &amp;nbsp;Вычисление определителя второго порядка" style="strokeWidth=2;html=1;shape=mxgraph.flowchart.annotation_1;align=left;pointerEvents=1;verticalAlign=middle;fontFamily=Helvetica;fontSize=16;fontColor=default;fillColor=none;gradientColor=none;" parent="1" vertex="1">
          <mxGeometry x="985" y="670" width="25" height="60" as="geometry" />
        </mxCell>
        <mxCell id="jtaZGn-zuC6d_EoR23D8-17" value="" style="endArrow=none;dashed=1;html=1;rounded=0;fontFamily=Helvetica;fontSize=16;fontColor=default;exitX=1;exitY=0.5;exitDx=0;exitDy=0;" parent="1" source="FEOhGibvp6qKB15Zhyrx-14" target="jtaZGn-zuC6d_EoR23D8-18" edge="1">
          <mxGeometry width="50" height="50" relative="1" as="geometry">
            <mxPoint x="955" y="805" as="sourcePoint" />
            <mxPoint x="1105" y="795" as="targetPoint" />
          </mxGeometry>
        </mxCell>
        <mxCell id="jtaZGn-zuC6d_EoR23D8-18" value="&amp;nbsp; &amp;nbsp;Вычисление координаты Y" style="strokeWidth=2;html=1;shape=mxgraph.flowchart.annotation_1;align=left;pointerEvents=1;verticalAlign=middle;fontFamily=Helvetica;fontSize=16;fontColor=default;fillColor=none;gradientColor=none;" parent="1" vertex="1">
          <mxGeometry x="985" y="775" width="25" height="60" as="geometry" />
        </mxCell>
        <mxCell id="jtaZGn-zuC6d_EoR23D8-19" value="" style="endArrow=none;dashed=1;html=1;rounded=0;fontFamily=Helvetica;fontSize=16;fontColor=default;exitX=1;exitY=0.5;exitDx=0;exitDy=0;" parent="1" source="FEOhGibvp6qKB15Zhyrx-8" target="jtaZGn-zuC6d_EoR23D8-20" edge="1">
          <mxGeometry width="50" height="50" relative="1" as="geometry">
            <mxPoint x="410" y="800" as="sourcePoint" />
            <mxPoint x="560" y="790" as="targetPoint" />
          </mxGeometry>
        </mxCell>
        <mxCell id="jtaZGn-zuC6d_EoR23D8-20" value="&amp;nbsp; &amp;nbsp;Вычисление координаты X" style="strokeWidth=2;html=1;shape=mxgraph.flowchart.annotation_1;align=left;pointerEvents=1;verticalAlign=middle;fontFamily=Helvetica;fontSize=16;fontColor=default;fillColor=none;gradientColor=none;" parent="1" vertex="1">
          <mxGeometry x="410" y="770" width="25" height="60" as="geometry" />
        </mxCell>
      </root>
    </mxGraphModel>
  </diagram>
  <diagram name="Страница — 4" id="jhv5tAnkw0Al3sHg8SHT">
    <mxGraphModel dx="927" dy="511" grid="1" gridSize="10" guides="1" tooltips="1" connect="1" arrows="1" fold="1" page="1" pageScale="1" pageWidth="827" pageHeight="1169" math="0" shadow="0">
      <root>
        <mxCell id="0" />
        <mxCell id="1" parent="0" />
        <mxCell id="sax8-hh7cYWmfM-RZOj1-2" value="Input_user" style="rounded=0;whiteSpace=wrap;html=1;align=center;verticalAlign=middle;fontFamily=Helvetica;fontSize=16;fontColor=#000000;fillColor=#1ba1e2;labelBackgroundColor=#1ba1e2;strokeColor=#006EAF;" parent="1" vertex="1">
          <mxGeometry x="130" y="240" width="120" height="60" as="geometry" />
        </mxCell>
        <mxCell id="sax8-hh7cYWmfM-RZOj1-5" value="" style="endArrow=none;html=1;rounded=0;fontFamily=Helvetica;fontSize=16;fontColor=default;entryX=0.5;entryY=1;entryDx=0;entryDy=0;" parent="1" target="Ld2z6YMsv8Fg3z-BrwF2-3" edge="1">
          <mxGeometry width="50" height="50" relative="1" as="geometry">
            <mxPoint x="400" y="200" as="sourcePoint" />
            <mxPoint x="400" y="180" as="targetPoint" />
          </mxGeometry>
        </mxCell>
        <mxCell id="sax8-hh7cYWmfM-RZOj1-12" value="" style="endArrow=none;html=1;rounded=0;fontFamily=Helvetica;fontSize=16;fontColor=default;exitX=0.5;exitY=0;exitDx=0;exitDy=0;" parent="1" source="sax8-hh7cYWmfM-RZOj1-2" edge="1">
          <mxGeometry width="50" height="50" relative="1" as="geometry">
            <mxPoint x="200" y="230" as="sourcePoint" />
            <mxPoint x="400" y="200" as="targetPoint" />
            <Array as="points">
              <mxPoint x="190" y="200" />
            </Array>
          </mxGeometry>
        </mxCell>
        <mxCell id="sax8-hh7cYWmfM-RZOj1-13" value="" style="endArrow=none;html=1;rounded=0;fontFamily=Helvetica;fontSize=16;fontColor=default;exitX=0.5;exitY=0;exitDx=0;exitDy=0;" parent="1" source="Ld2z6YMsv8Fg3z-BrwF2-1" edge="1">
          <mxGeometry width="50" height="50" relative="1" as="geometry">
            <mxPoint x="620" y="240" as="sourcePoint" />
            <mxPoint x="400" y="200" as="targetPoint" />
            <Array as="points">
              <mxPoint x="620" y="200" />
            </Array>
          </mxGeometry>
        </mxCell>
        <mxCell id="sax8-hh7cYWmfM-RZOj1-14" value="" style="endArrow=none;html=1;rounded=0;fontFamily=Helvetica;fontSize=16;fontColor=default;exitX=0.5;exitY=0;exitDx=0;exitDy=0;" parent="1" source="Ld2z6YMsv8Fg3z-BrwF2-2" edge="1">
          <mxGeometry width="50" height="50" relative="1" as="geometry">
            <mxPoint x="400" y="240" as="sourcePoint" />
            <mxPoint x="400" y="200" as="targetPoint" />
          </mxGeometry>
        </mxCell>
        <mxCell id="Ld2z6YMsv8Fg3z-BrwF2-1" value="Out_info" style="rounded=0;whiteSpace=wrap;html=1;align=center;verticalAlign=middle;fontFamily=Helvetica;fontSize=16;fontColor=#000000;fillColor=#1ba1e2;labelBackgroundColor=#1ba1e2;strokeColor=#006EAF;" parent="1" vertex="1">
          <mxGeometry x="560" y="240" width="120" height="60" as="geometry" />
        </mxCell>
        <mxCell id="Ld2z6YMsv8Fg3z-BrwF2-2" value="Result" style="rounded=0;whiteSpace=wrap;html=1;align=center;verticalAlign=middle;fontFamily=Helvetica;fontSize=16;fontColor=#000000;fillColor=#1ba1e2;labelBackgroundColor=#1ba1e2;strokeColor=#006EAF;" parent="1" vertex="1">
          <mxGeometry x="340" y="240" width="120" height="60" as="geometry" />
        </mxCell>
        <mxCell id="Ld2z6YMsv8Fg3z-BrwF2-3" value="void button()" style="rounded=0;whiteSpace=wrap;html=1;align=center;verticalAlign=middle;fontFamily=Helvetica;fontSize=16;fontColor=#000000;fillColor=#1ba1e2;labelBackgroundColor=#1ba1e2;strokeColor=#006EAF;" parent="1" vertex="1">
          <mxGeometry x="340" y="120" width="120" height="60" as="geometry" />
        </mxCell>
        <mxCell id="Ld2z6YMsv8Fg3z-BrwF2-4" value="" style="endArrow=none;html=1;rounded=0;fontFamily=Helvetica;fontSize=16;fontColor=default;entryX=0.5;entryY=1;entryDx=0;entryDy=0;" parent="1" target="Ld2z6YMsv8Fg3z-BrwF2-2" edge="1">
          <mxGeometry width="50" height="50" relative="1" as="geometry">
            <mxPoint x="400" y="340" as="sourcePoint" />
            <mxPoint x="400" y="330" as="targetPoint" />
          </mxGeometry>
        </mxCell>
        <mxCell id="Ld2z6YMsv8Fg3z-BrwF2-7" value="Res_Delta_X" style="rounded=0;whiteSpace=wrap;html=1;align=center;verticalAlign=middle;fontFamily=Helvetica;fontSize=16;fontColor=#000000;fillColor=#1ba1e2;labelBackgroundColor=#1ba1e2;strokeColor=#006EAF;" parent="1" vertex="1">
          <mxGeometry x="340" y="380" width="120" height="60" as="geometry" />
        </mxCell>
        <mxCell id="Ld2z6YMsv8Fg3z-BrwF2-8" value="Res_Delta_Y" style="rounded=0;whiteSpace=wrap;html=1;align=center;verticalAlign=middle;fontFamily=Helvetica;fontSize=16;fontColor=#000000;fillColor=#1ba1e2;labelBackgroundColor=#1ba1e2;strokeColor=#006EAF;" parent="1" vertex="1">
          <mxGeometry x="520" y="380" width="120" height="60" as="geometry" />
        </mxCell>
        <mxCell id="Ld2z6YMsv8Fg3z-BrwF2-9" value="Delta()" style="rounded=0;whiteSpace=wrap;html=1;align=center;verticalAlign=middle;fontFamily=Helvetica;fontSize=16;fontColor=#000000;fillColor=#1ba1e2;labelBackgroundColor=#1ba1e2;strokeColor=#006EAF;" parent="1" vertex="1">
          <mxGeometry x="160" y="380" width="120" height="60" as="geometry" />
        </mxCell>
        <mxCell id="Ld2z6YMsv8Fg3z-BrwF2-12" value="res_x" style="rounded=0;whiteSpace=wrap;html=1;align=center;verticalAlign=middle;fontFamily=Helvetica;fontSize=16;fontColor=#000000;fillColor=#1ba1e2;labelBackgroundColor=#1ba1e2;strokeColor=#006EAF;" parent="1" vertex="1">
          <mxGeometry x="250" y="510" width="120" height="60" as="geometry" />
        </mxCell>
        <mxCell id="Ld2z6YMsv8Fg3z-BrwF2-13" value="res_y" style="rounded=0;whiteSpace=wrap;html=1;align=center;verticalAlign=middle;fontFamily=Helvetica;fontSize=16;fontColor=#000000;fillColor=#1ba1e2;labelBackgroundColor=#1ba1e2;strokeColor=#006EAF;" parent="1" vertex="1">
          <mxGeometry x="430" y="510" width="120" height="60" as="geometry" />
        </mxCell>
        <mxCell id="Ld2z6YMsv8Fg3z-BrwF2-14" value="" style="endArrow=none;html=1;rounded=0;fontFamily=Helvetica;fontSize=16;fontColor=default;entryX=0.5;entryY=1;entryDx=0;entryDy=0;" parent="1" target="Ld2z6YMsv8Fg3z-BrwF2-9" edge="1">
          <mxGeometry width="50" height="50" relative="1" as="geometry">
            <mxPoint x="400" y="470" as="sourcePoint" />
            <mxPoint x="180" y="460" as="targetPoint" />
            <Array as="points">
              <mxPoint x="220" y="470" />
            </Array>
          </mxGeometry>
        </mxCell>
        <mxCell id="Ld2z6YMsv8Fg3z-BrwF2-15" value="" style="endArrow=none;html=1;rounded=0;fontFamily=Helvetica;fontSize=16;fontColor=default;entryX=0.5;entryY=1;entryDx=0;entryDy=0;" parent="1" target="Ld2z6YMsv8Fg3z-BrwF2-8" edge="1">
          <mxGeometry width="50" height="50" relative="1" as="geometry">
            <mxPoint x="400" y="470" as="sourcePoint" />
            <mxPoint x="490" y="440" as="targetPoint" />
            <Array as="points">
              <mxPoint x="580" y="470" />
            </Array>
          </mxGeometry>
        </mxCell>
        <mxCell id="Ld2z6YMsv8Fg3z-BrwF2-16" value="" style="endArrow=none;html=1;rounded=0;fontFamily=Helvetica;fontSize=16;fontColor=default;entryX=0.5;entryY=1;entryDx=0;entryDy=0;" parent="1" target="Ld2z6YMsv8Fg3z-BrwF2-7" edge="1">
          <mxGeometry width="50" height="50" relative="1" as="geometry">
            <mxPoint x="400" y="470" as="sourcePoint" />
            <mxPoint x="410" y="400" as="targetPoint" />
          </mxGeometry>
        </mxCell>
        <mxCell id="Ld2z6YMsv8Fg3z-BrwF2-17" value="" style="endArrow=none;html=1;rounded=0;fontFamily=Helvetica;fontSize=16;fontColor=default;" parent="1" edge="1">
          <mxGeometry width="50" height="50" relative="1" as="geometry">
            <mxPoint x="400" y="490" as="sourcePoint" />
            <mxPoint x="400" y="470" as="targetPoint" />
          </mxGeometry>
        </mxCell>
        <mxCell id="Ld2z6YMsv8Fg3z-BrwF2-19" value="" style="endArrow=none;html=1;rounded=0;fontFamily=Helvetica;fontSize=16;fontColor=default;exitX=0.5;exitY=0;exitDx=0;exitDy=0;" parent="1" source="Ld2z6YMsv8Fg3z-BrwF2-13" edge="1">
          <mxGeometry width="50" height="50" relative="1" as="geometry">
            <mxPoint x="410" y="500" as="sourcePoint" />
            <mxPoint x="400" y="490" as="targetPoint" />
            <Array as="points">
              <mxPoint x="490" y="490" />
            </Array>
          </mxGeometry>
        </mxCell>
        <mxCell id="Ld2z6YMsv8Fg3z-BrwF2-20" value="" style="endArrow=none;html=1;rounded=0;fontFamily=Helvetica;fontSize=16;fontColor=default;exitX=0.5;exitY=0;exitDx=0;exitDy=0;" parent="1" source="Ld2z6YMsv8Fg3z-BrwF2-12" edge="1">
          <mxGeometry width="50" height="50" relative="1" as="geometry">
            <mxPoint x="420" y="510" as="sourcePoint" />
            <mxPoint x="400" y="490" as="targetPoint" />
            <Array as="points">
              <mxPoint x="310" y="490" />
            </Array>
          </mxGeometry>
        </mxCell>
        <mxCell id="Ld2z6YMsv8Fg3z-BrwF2-21" value="" style="endArrow=none;html=1;rounded=0;fontFamily=Helvetica;fontSize=16;fontColor=default;exitX=0.5;exitY=0;exitDx=0;exitDy=0;" parent="1" source="Ld2z6YMsv8Fg3z-BrwF2-9" edge="1">
          <mxGeometry width="50" height="50" relative="1" as="geometry">
            <mxPoint x="230" y="360" as="sourcePoint" />
            <mxPoint x="400" y="360" as="targetPoint" />
            <Array as="points">
              <mxPoint x="220" y="360" />
            </Array>
          </mxGeometry>
        </mxCell>
        <mxCell id="Ld2z6YMsv8Fg3z-BrwF2-22" value="" style="endArrow=none;html=1;rounded=0;fontFamily=Helvetica;fontSize=16;fontColor=default;" parent="1" edge="1">
          <mxGeometry width="50" height="50" relative="1" as="geometry">
            <mxPoint x="400" y="360" as="sourcePoint" />
            <mxPoint x="400" y="340" as="targetPoint" />
          </mxGeometry>
        </mxCell>
        <mxCell id="Ld2z6YMsv8Fg3z-BrwF2-23" value="" style="endArrow=none;html=1;rounded=0;fontFamily=Helvetica;fontSize=16;fontColor=default;exitX=0.5;exitY=0;exitDx=0;exitDy=0;" parent="1" source="Ld2z6YMsv8Fg3z-BrwF2-8" edge="1">
          <mxGeometry width="50" height="50" relative="1" as="geometry">
            <mxPoint x="470" y="360" as="sourcePoint" />
            <mxPoint x="400" y="360" as="targetPoint" />
            <Array as="points">
              <mxPoint x="580" y="360" />
            </Array>
          </mxGeometry>
        </mxCell>
        <mxCell id="Ld2z6YMsv8Fg3z-BrwF2-24" value="" style="endArrow=none;html=1;rounded=0;fontFamily=Helvetica;fontSize=16;fontColor=default;exitX=0.5;exitY=0;exitDx=0;exitDy=0;" parent="1" source="Ld2z6YMsv8Fg3z-BrwF2-7" edge="1">
          <mxGeometry width="50" height="50" relative="1" as="geometry">
            <mxPoint x="480" y="370" as="sourcePoint" />
            <mxPoint x="400" y="360" as="targetPoint" />
          </mxGeometry>
        </mxCell>
      </root>
    </mxGraphModel>
  </diagram>
</mxfile>
